{
  "source": "C:\\Users\\Peter\\Desktop\\stuff\\MIUN\\quantitative_research\\video_compression\\videos\\BVI-HD\\BVI-HD_CDVL_videos\\ORIG\\BridgeRiver_1920x1080_30fps.mp4",
  "output": "C:\\Users\\Peter\\Desktop\\stuff\\MIUN\\quantitative_research\\video_compression\\compressed_videos\\BVI-HD\\hevc\\3\\BridgeRiver_1920x1080_30fps_hevc.mp4",
  "codec": "hevc",
  "ok": "Input #0, mov,mp4,m4a,3gp,3g2,mj2, from 'C:\\Users\\Peter\\Desktop\\stuff\\MIUN\\quantitative_research\\video_compression\\videos\\BVI-HD\\BVI-HD_CDVL_videos\\ORIG\\BridgeRiver_1920x1080_30fps.mp4':\n  Metadata:\n    major_brand     : isom\n    minor_version   : 512\n    compatible_brands: isomiso2avc1mp41\n    encoder         : Lavf54.28.101\n  Duration: 00:00:05.00, start: 0.000000, bitrate: 274913 kb/s\n  Stream #0:0[0x1](und): Video: h264 (High 4:4:4 Predictive) (avc1 / 0x31637661), yuv420p(progressive), 1920x1080, 274910 kb/s, 30 fps, 30 tbr, 30 tbn (default)\n    Metadata:\n      handler_name    : VideoHandler\n      vendor_id       : [0][0][0][0]\n[out#0/mp4 @ 000001f198241700] Codec AVOption b:a (set bitrate (in bits/s)) has not been used for any stream. The most likely reason is either wrong type (e.g. a video option with no video streams) or that it is a private option of some decoder which was not actually used for any stream.\nStream mapping:\n  Stream #0:0 -> #0:0 (h264 (native) -> hevc (libx265))\nPress [q] to stop, [?] for help\n[libx265 @ 000001f198ce0180] Unknown option: \"aq-mode.\nx265 [info]: HEVC encoder version 4.1+190-8f11c33ac\nx265 [info]: build info [Windows][GCC 15.1.0][64 bit] 10bit\nx265 [info]: using cpu capabilities: MMX2 SSE2Fast LZCNT SSSE3 SSE4.2 AVX FMA3 BMI2 AVX2\nx265 [info]: Main 10 profile, Level-4 (Main tier)\nx265 [info]: Thread pool created using 12 threads\nx265 [info]: Slices                              : 1\nx265 [info]: frame threads / pool features       : 3 / wpp(17 rows)\nx265 [info]: Coding QT: max CU size, min CU size : 64 / 8\nx265 [info]: Residual QT: max TU size, max depth : 32 / 1 inter / 1 intra\nx265 [info]: ME / range / subpel / merge         : star / 57 / 3 / 3\nx265 [info]: Keyframe min / max / scenecut / bias  : 25 / 250 / 40 / 5.00 \nx265 [info]: Lookahead / bframes / badapt        : 25 / 4 / 2\nx265 [info]: b-pyramid / weightp / weightb       : 1 / 1 / 0\nx265 [info]: References / ref-limit  cu / depth  : 4 / on / on\nx265 [info]: AQ: mode / str / qg-size / cu-tree  : 2 / 1.0 / 32 / 1\nx265 [info]: Rate Control / qCompress            : ABR-3000 kbps / 0.60\nx265 [info]: VBV/HRD buffer / max-rate / init    : 3000 / 3000 / 0.750\nx265 [info]: tools: rect limit-modes rd=4 psy-rd=2.00 rdoq=2 psy-rdoq=1.00\nx265 [info]: tools: rskip mode=1 signhide tmvp strong-intra-smoothing lslices=4\nx265 [info]: tools: deblock sao dhdr10-info\nOutput #0, mp4, to 'C:\\Users\\Peter\\Desktop\\stuff\\MIUN\\quantitative_research\\video_compression\\compressed_videos\\BVI-HD\\hevc\\3\\BridgeRiver_1920x1080_30fps_hevc.mp4':\n  Metadata:\n    major_brand     : isom\n    minor_version   : 512\n    compatible_brands: isomiso2avc1mp41\n    encoder         : Lavf62.3.100\n  Stream #0:0(und): Video: hevc (hev1 / 0x31766568), yuv420p10le(tv, progressive), 1920x1080, q=2-31, 3000 kb/s, 30 fps, 15360 tbn (default)\n    Metadata:\n      encoder         : Lavc62.11.100 libx265\n      handler_name    : VideoHandler\n      vendor_id       : [0][0][0][0]\n    Side data:\n      cpb: bitrate max/min/avg: 3000000/0/3000000 buffer size: 3000000 vbv_delay: N/A\nframe=    0 fps=0.0 q=0.0 size=       0KiB time=N/A bitrate=N/A speed=N/A elapsed=0:00:01.23    \nframe=    0 fps=0.0 q=0.0 size=       0KiB time=N/A bitrate=N/A speed=N/A elapsed=0:00:01.82    \nframe=    0 fps=0.0 q=0.0 size=       0KiB time=N/A bitrate=N/A speed=N/A elapsed=0:00:02.47    \nframe=    0 fps=0.0 q=0.0 size=       0KiB time=N/A bitrate=N/A speed=N/A elapsed=0:00:03.18    \nframe=    0 fps=0.0 q=0.0 size=       0KiB time=N/A bitrate=N/A speed=N/A elapsed=0:00:03.84    \nframe=    0 fps=0.0 q=0.0 size=       0KiB time=N/A bitrate=N/A speed=N/A elapsed=0:00:04.37    \nframe=    0 fps=0.0 q=0.0 size=       0KiB time=N/A bitrate=N/A speed=N/A elapsed=0:00:04.95    \nframe=    0 fps=0.0 q=0.0 size=       0KiB time=N/A bitrate=N/A speed=N/A elapsed=0:00:05.51    \nframe=    0 fps=0.0 q=0.0 size=       0KiB time=N/A bitrate=N/A speed=N/A elapsed=0:00:06.02    \nframe=    0 fps=0.0 q=0.0 size=       0KiB time=N/A bitrate=N/A speed=N/A elapsed=0:00:06.54    \nframe=    0 fps=0.0 q=0.0 size=       0KiB time=N/A bitrate=N/A speed=N/A elapsed=0:00:07.09    \nframe=    0 fps=0.0 q=0.0 size=       0KiB time=N/A bitrate=N/A speed=N/A elapsed=0:00:07.61    \nframe=    0 fps=0.0 q=0.0 size=       0KiB time=N/A bitrate=N/A speed=N/A elapsed=0:00:08.14    \nframe=    0 fps=0.0 q=0.0 size=       0KiB time=N/A bitrate=N/A speed=N/A elapsed=0:00:08.69    \nframe=    0 fps=0.0 q=0.0 size=       0KiB time=N/A bitrate=N/A speed=N/A elapsed=0:00:09.23    \nframe=    0 fps=0.0 q=0.0 size=       0KiB time=N/A bitrate=N/A speed=N/A elapsed=0:00:09.77    \nframe=    0 fps=0.0 q=0.0 size=       0KiB time=N/A bitrate=N/A speed=N/A elapsed=0:00:10.30    \nframe=    0 fps=0.0 q=0.0 size=       0KiB time=N/A bitrate=N/A speed=N/A elapsed=0:00:10.88    \nframe=    0 fps=0.0 q=0.0 size=       0KiB time=N/A bitrate=N/A speed=N/A elapsed=0:00:11.41    \nframe=    0 fps=0.0 q=0.0 size=       0KiB time=N/A bitrate=N/A speed=N/A elapsed=0:00:11.91    \nframe=    0 fps=0.0 q=0.0 size=       0KiB time=N/A bitrate=N/A speed=N/A elapsed=0:00:12.43    \nframe=    0 fps=0.0 q=0.0 size=       0KiB time=N/A bitrate=N/A speed=N/A elapsed=0:00:12.95    \nframe=    0 fps=0.0 q=0.0 size=       0KiB time=N/A bitrate=N/A speed=N/A elapsed=0:00:13.46    \nframe=    0 fps=0.0 q=0.0 size=       0KiB time=N/A bitrate=N/A speed=N/A elapsed=0:00:14.00    \nframe=    0 fps=0.0 q=0.0 size=       0KiB time=N/A bitrate=N/A speed=N/A elapsed=0:00:14.54    \nframe=    1 fps=0.1 q=36.9 size=       0KiB time=-00:00:00.03 bitrate=N/A speed=N/A elapsed=0:00:15.08    \nframe=    1 fps=0.1 q=36.9 size=       0KiB time=-00:00:00.03 bitrate=N/A speed=N/A elapsed=0:00:15.71    \nframe=    1 fps=0.1 q=36.9 size=       0KiB time=-00:00:00.03 bitrate=N/A speed=N/A elapsed=0:00:16.31    \nframe=    1 fps=0.1 q=36.9 size=       0KiB time=-00:00:00.03 bitrate=N/A speed=N/A elapsed=0:00:16.97    \nframe=    1 fps=0.1 q=36.9 size=       0KiB time=-00:00:00.03 bitrate=N/A speed=N/A elapsed=0:00:17.54    \nframe=    2 fps=0.1 q=43.6 size=       0KiB time=00:00:00.00 bitrate=N/A speed=   0x elapsed=0:00:18.10    \nframe=    3 fps=0.2 q=46.9 size=       0KiB time=00:00:00.03 bitrate=  10.6kbits/s speed=0.00178x elapsed=0:00:18.68    \nframe=    4 fps=0.2 q=47.9 size=       0KiB time=00:00:00.06 bitrate=   5.3kbits/s speed=0.00346x elapsed=0:00:19.25    \nframe=    4 fps=0.2 q=47.9 size=       0KiB time=00:00:00.06 bitrate=   5.3kbits/s speed=0.00337x elapsed=0:00:19.80    \nframe=    4 fps=0.2 q=47.9 size=       0KiB time=00:00:00.06 bitrate=   5.3kbits/s speed=0.00327x elapsed=0:00:20.36    \nframe=    4 fps=0.2 q=47.9 size=       0KiB time=00:00:00.06 bitrate=   5.3kbits/s speed=0.00319x elapsed=0:00:20.90    \nframe=    5 fps=0.2 q=47.9 size=       0KiB time=00:00:00.10 bitrate=   3.5kbits/s speed=0.00466x elapsed=0:00:21.43    \nframe=    5 fps=0.2 q=47.9 size=       0KiB time=00:00:00.10 bitrate=   3.5kbits/s speed=0.00453x elapsed=0:00:22.06    \nframe=    5 fps=0.2 q=47.9 size=       0KiB time=00:00:00.10 bitrate=   3.5kbits/s speed=0.00443x elapsed=0:00:22.58    \nframe=    5 fps=0.2 q=47.9 size=       0KiB time=00:00:00.10 bitrate=   3.5kbits/s speed=0.00432x elapsed=0:00:23.16    \nframe=    6 fps=0.3 q=47.9 size=       0KiB time=00:00:00.13 bitrate=   2.6kbits/s speed=0.00563x elapsed=0:00:23.67    \nframe=    6 fps=0.2 q=47.9 size=       0KiB time=00:00:00.13 bitrate=   2.6kbits/s speed=0.00551x elapsed=0:00:24.18    \nframe=    6 fps=0.2 q=47.9 size=       0KiB time=00:00:00.13 bitrate=   2.6kbits/s speed=0.00539x elapsed=0:00:24.73    \nframe=    6 fps=0.2 q=47.9 size=       0KiB time=00:00:00.13 bitrate=   2.6kbits/s speed=0.00526x elapsed=0:00:25.34    \nframe=    6 fps=0.2 q=47.9 size=       0KiB time=00:00:00.13 bitrate=   2.6kbits/s speed=0.00515x elapsed=0:00:25.88    \nframe=    6 fps=0.2 q=47.9 size=       0KiB time=00:00:00.13 bitrate=   2.6kbits/s speed=0.00505x elapsed=0:00:26.40    \nframe=    6 fps=0.2 q=47.9 size=       0KiB time=00:00:00.13 bitrate=   2.6kbits/s speed=0.00494x elapsed=0:00:26.97    \nframe=    6 fps=0.2 q=47.9 size=       0KiB time=00:00:00.13 bitrate=   2.6kbits/s speed=0.00485x elapsed=0:00:27.49    \nframe=    7 fps=0.2 q=39.5 size=       0KiB time=00:00:00.16 bitrate=   2.1kbits/s speed=0.00594x elapsed=0:00:28.03    \nframe=    8 fps=0.3 q=44.9 size=       0KiB time=00:00:00.20 bitrate=   1.8kbits/s speed=0.007x elapsed=0:00:28.57    \nframe=    8 fps=0.3 q=44.9 size=       0KiB time=00:00:00.20 bitrate=   1.8kbits/s speed=0.00687x elapsed=0:00:29.11    \nframe=    8 fps=0.3 q=44.9 size=       0KiB time=00:00:00.20 bitrate=   1.8kbits/s speed=0.00674x elapsed=0:00:29.68    \nframe=    8 fps=0.3 q=44.9 size=       0KiB time=00:00:00.20 bitrate=   1.8kbits/s speed=0.00661x elapsed=0:00:30.25    \nframe=    8 fps=0.3 q=44.9 size=       0KiB time=00:00:00.20 bitrate=   1.8kbits/s speed=0.00649x elapsed=0:00:30.81    \nframe=    8 fps=0.3 q=44.9 size=       0KiB time=00:00:00.20 bitrate=   1.8kbits/s speed=0.00637x elapsed=0:00:31.37    \nframe=    8 fps=0.3 q=44.9 size=       0KiB time=00:00:00.20 bitrate=   1.8kbits/s speed=0.00627x elapsed=0:00:31.90    \nframe=    8 fps=0.2 q=44.9 size=       0KiB time=00:00:00.20 bitrate=   1.8kbits/s speed=0.00617x elapsed=0:00:32.43    \nframe=    9 fps=0.3 q=45.4 size=       0KiB time=00:00:00.23 bitrate=   1.5kbits/s speed=0.00708x elapsed=0:00:32.96    \nframe=    9 fps=0.3 q=45.4 size=       0KiB time=00:00:00.23 bitrate=   1.5kbits/s speed=0.00696x elapsed=0:00:33.50    \nframe=    9 fps=0.3 q=45.4 size=       0KiB time=00:00:00.23 bitrate=   1.5kbits/s speed=0.00685x elapsed=0:00:34.07    \nframe=   10 fps=0.3 q=45.3 size=       0KiB time=00:00:00.26 bitrate=   1.3kbits/s speed=0.00771x elapsed=0:00:34.58    \nframe=   10 fps=0.3 q=45.3 size=       0KiB time=00:00:00.26 bitrate=   1.3kbits/s speed=0.0076x elapsed=0:00:35.11    \nframe=   10 fps=0.3 q=45.3 size=       0KiB time=00:00:00.26 bitrate=   1.3kbits/s speed=0.00748x elapsed=0:00:35.64    \nframe=   11 fps=0.3 q=45.1 size=       0KiB time=00:00:00.30 bitrate=   1.2kbits/s speed=0.00829x elapsed=0:00:36.19    \nframe=   11 fps=0.3 q=45.1 size=       0KiB time=00:00:00.30 bitrate=   1.2kbits/s speed=0.00817x elapsed=0:00:36.72    \nframe=   11 fps=0.3 q=45.1 size=       0KiB time=00:00:00.30 bitrate=   1.2kbits/s speed=0.00805x elapsed=0:00:37.27    \nframe=   11 fps=0.3 q=45.1 size=       0KiB time=00:00:00.30 bitrate=   1.2kbits/s speed=0.00793x elapsed=0:00:37.83    \nframe=   11 fps=0.3 q=45.1 size=       0KiB time=00:00:00.30 bitrate=   1.2kbits/s speed=0.00782x elapsed=0:00:38.35    \nframe=   11 fps=0.3 q=45.1 size=       0KiB time=00:00:00.30 bitrate=   1.2kbits/s speed=0.00771x elapsed=0:00:38.91    \nframe=   11 fps=0.3 q=45.1 size=       0KiB time=00:00:00.30 bitrate=   1.2kbits/s speed=0.00759x elapsed=0:00:39.52    \nframe=   11 fps=0.3 q=45.1 size=       0KiB time=00:00:00.30 bitrate=   1.2kbits/s speed=0.00748x elapsed=0:00:40.10    \nframe=   11 fps=0.3 q=45.1 size=       0KiB time=00:00:00.30 bitrate=   1.2kbits/s speed=0.00738x elapsed=0:00:40.65    \nframe=   11 fps=0.3 q=45.1 size=       0KiB time=00:00:00.30 bitrate=   1.2kbits/s speed=0.00728x elapsed=0:00:41.21    \nframe=   11 fps=0.3 q=45.1 size=       0KiB time=00:00:00.30 bitrate=   1.2kbits/s speed=0.00719x elapsed=0:00:41.73    \nframe=   12 fps=0.3 q=39.3 size=       0KiB time=00:00:00.33 bitrate=   1.1kbits/s speed=0.00788x elapsed=0:00:42.28    \nframe=   12 fps=0.3 q=39.3 size=       0KiB time=00:00:00.33 bitrate=   1.1kbits/s speed=0.00779x elapsed=0:00:42.79    \nframe=   13 fps=0.3 q=43.1 size=       0KiB time=00:00:00.36 bitrate=   1.0kbits/s speed=0.00847x elapsed=0:00:43.31    \nframe=   13 fps=0.3 q=43.1 size=       0KiB time=00:00:00.36 bitrate=   1.0kbits/s speed=0.00836x elapsed=0:00:43.84    \nframe=   13 fps=0.3 q=43.1 size=       0KiB time=00:00:00.36 bitrate=   1.0kbits/s speed=0.00826x elapsed=0:00:44.38    \nframe=   13 fps=0.3 q=43.1 size=       0KiB time=00:00:00.36 bitrate=   1.0kbits/s speed=0.00816x elapsed=0:00:44.91    \nframe=   14 fps=0.3 q=44.1 size=       0KiB time=00:00:00.40 bitrate=   0.9kbits/s speed=0.0088x elapsed=0:00:45.43    \nframe=   14 fps=0.3 q=44.1 size=       0KiB time=00:00:00.40 bitrate=   0.9kbits/s speed=0.0087x elapsed=0:00:45.98    \nframe=   15 fps=0.3 q=44.0 size=       0KiB time=00:00:00.43 bitrate=   0.8kbits/s speed=0.00932x elapsed=0:00:46.50    \nframe=   15 fps=0.3 q=44.0 size=       0KiB time=00:00:00.43 bitrate=   0.8kbits/s speed=0.00921x elapsed=0:00:47.03    \nframe=   15 fps=0.3 q=44.0 size=       0KiB time=00:00:00.43 bitrate=   0.8kbits/s speed=0.00911x elapsed=0:00:47.55    \nframe=   15 fps=0.3 q=44.0 size=       0KiB time=00:00:00.43 bitrate=   0.8kbits/s speed=0.00902x elapsed=0:00:48.05    \nframe=   16 fps=0.3 q=44.2 size=       0KiB time=00:00:00.46 bitrate=   0.8kbits/s speed=0.00961x elapsed=0:00:48.58    \nframe=   16 fps=0.3 q=44.2 size=       0KiB time=00:00:00.46 bitrate=   0.8kbits/s speed=0.0095x elapsed=0:00:49.11    \nframe=   16 fps=0.3 q=44.2 size=       0KiB time=00:00:00.46 bitrate=   0.8kbits/s speed=0.0094x elapsed=0:00:49.63    \nframe=   16 fps=0.3 q=44.2 size=       0KiB time=00:00:00.46 bitrate=   0.8kbits/s speed=0.0093x elapsed=0:00:50.15    \nframe=   17 fps=0.3 q=39.5 size=       0KiB time=00:00:00.50 bitrate=   0.7kbits/s speed=0.00987x elapsed=0:00:50.66    \nframe=   18 fps=0.4 q=43.8 size=       0KiB time=00:00:00.53 bitrate=   0.7kbits/s speed=0.0104x elapsed=0:00:51.20    \nframe=   18 fps=0.3 q=43.8 size=       0KiB time=00:00:00.53 bitrate=   0.7kbits/s speed=0.0103x elapsed=0:00:51.75    \nframe=   18 fps=0.3 q=43.8 size=       0KiB time=00:00:00.53 bitrate=   0.7kbits/s speed=0.0102x elapsed=0:00:52.28    \nframe=   19 fps=0.4 q=44.8 size=     256KiB time=00:00:00.56 bitrate=3701.5kbits/s speed=0.0107x elapsed=0:00:52.81    \nframe=   19 fps=0.4 q=44.8 size=     256KiB time=00:00:00.56 bitrate=3701.5kbits/s speed=0.0106x elapsed=0:00:53.33    \nframe=   20 fps=0.4 q=44.9 size=     256KiB time=00:00:00.60 bitrate=3495.8kbits/s speed=0.0111x elapsed=0:00:53.84    \nframe=   20 fps=0.4 q=44.9 size=     256KiB time=00:00:00.60 bitrate=3495.8kbits/s speed=0.011x elapsed=0:00:54.38    \nframe=   20 fps=0.4 q=44.9 size=     256KiB time=00:00:00.60 bitrate=3495.8kbits/s speed=0.0109x elapsed=0:00:54.91    \nframe=   20 fps=0.4 q=44.9 size=     256KiB time=00:00:00.60 bitrate=3495.8kbits/s speed=0.0108x elapsed=0:00:55.44    \nframe=   21 fps=0.4 q=44.9 size=     256KiB time=00:00:00.63 bitrate=3311.9kbits/s speed=0.0113x elapsed=0:00:55.97    \nframe=   21 fps=0.4 q=44.9 size=     256KiB time=00:00:00.63 bitrate=3311.9kbits/s speed=0.0112x elapsed=0:00:56.49    \nframe=   21 fps=0.4 q=44.9 size=     256KiB time=00:00:00.63 bitrate=3311.9kbits/s speed=0.0111x elapsed=0:00:57.01    \nframe=   22 fps=0.4 q=40.2 size=     256KiB time=00:00:00.66 bitrate=3146.3kbits/s speed=0.0116x elapsed=0:00:57.54    \nframe=   23 fps=0.4 q=43.5 size=     256KiB time=00:00:00.70 bitrate=2996.4kbits/s speed=0.0121x elapsed=0:00:58.05    \nframe=   23 fps=0.4 q=43.5 size=     256KiB time=00:00:00.70 bitrate=2996.4kbits/s speed=0.0119x elapsed=0:00:58.57    \nframe=   24 fps=0.4 q=45.0 size=     256KiB time=00:00:00.73 bitrate=2860.2kbits/s speed=0.0124x elapsed=0:00:59.11    \nframe=   24 fps=0.4 q=45.0 size=     256KiB time=00:00:00.73 bitrate=2860.2kbits/s speed=0.0123x elapsed=0:00:59.63    \nframe=   25 fps=0.4 q=45.0 size=     256KiB time=00:00:00.76 bitrate=2735.9kbits/s speed=0.0127x elapsed=0:01:00.15    \nframe=   25 fps=0.4 q=45.0 size=     256KiB time=00:00:00.76 bitrate=2735.9kbits/s speed=0.0126x elapsed=0:01:00.66    \nframe=   25 fps=0.4 q=45.0 size=     256KiB time=00:00:00.76 bitrate=2735.9kbits/s speed=0.0125x elapsed=0:01:01.20    \nframe=   25 fps=0.4 q=45.0 size=     256KiB time=00:00:00.76 bitrate=2735.9kbits/s speed=0.0124x elapsed=0:01:01.73    \nframe=   25 fps=0.4 q=45.0 size=     256KiB time=00:00:00.76 bitrate=2735.9kbits/s speed=0.0123x elapsed=0:01:02.25    \nframe=   25 fps=0.4 q=45.0 size=     256KiB time=00:00:00.76 bitrate=2735.9kbits/s speed=0.0122x elapsed=0:01:02.77    \nframe=   25 fps=0.4 q=45.0 size=     256KiB time=00:00:00.76 bitrate=2735.9kbits/s speed=0.0121x elapsed=0:01:03.29    \nframe=   26 fps=0.4 q=40.2 size=     256KiB time=00:00:00.80 bitrate=2621.9kbits/s speed=0.0125x elapsed=0:01:03.80    \nframe=   27 fps=0.4 q=43.2 size=     256KiB time=00:00:00.83 bitrate=2517.0kbits/s speed=0.013x elapsed=0:01:04.32    \nframe=   27 fps=0.4 q=43.2 size=     256KiB time=00:00:00.83 bitrate=2517.0kbits/s speed=0.0129x elapsed=0:01:04.83    \nframe=   28 fps=0.4 q=45.1 size=     256KiB time=00:00:00.86 bitrate=2420.2kbits/s speed=0.0133x elapsed=0:01:05.37    \nframe=   28 fps=0.4 q=45.1 size=     256KiB time=00:00:00.86 bitrate=2420.2kbits/s speed=0.0131x elapsed=0:01:05.91    \nframe=   28 fps=0.4 q=45.1 size=     256KiB time=00:00:00.86 bitrate=2420.2kbits/s speed=0.013x elapsed=0:01:06.44    \nframe=   28 fps=0.4 q=45.1 size=     256KiB time=00:00:00.86 bitrate=2420.2kbits/s speed=0.0129x elapsed=0:01:06.98    \nframe=   28 fps=0.4 q=45.1 size=     256KiB time=00:00:00.86 bitrate=2420.2kbits/s speed=0.0128x elapsed=0:01:07.51    \nframe=   29 fps=0.4 q=45.0 size=     256KiB time=00:00:00.90 bitrate=2330.6kbits/s speed=0.0132x elapsed=0:01:08.03    \nframe=   29 fps=0.4 q=45.0 size=     256KiB time=00:00:00.90 bitrate=2330.6kbits/s speed=0.0131x elapsed=0:01:08.55    \nframe=   30 fps=0.4 q=45.0 size=     256KiB time=00:00:00.93 bitrate=2247.3kbits/s speed=0.0135x elapsed=0:01:09.07    \nframe=   30 fps=0.4 q=45.0 size=     256KiB time=00:00:00.93 bitrate=2247.3kbits/s speed=0.0134x elapsed=0:01:09.59    \nframe=   30 fps=0.4 q=45.0 size=     256KiB time=00:00:00.93 bitrate=2247.3kbits/s speed=0.0133x elapsed=0:01:10.14    \nframe=   30 fps=0.4 q=45.0 size=     256KiB time=00:00:00.93 bitrate=2247.3kbits/s speed=0.0132x elapsed=0:01:10.71    \nframe=   30 fps=0.4 q=45.0 size=     256KiB time=00:00:00.93 bitrate=2247.3kbits/s speed=0.0131x elapsed=0:01:11.28    \nframe=   31 fps=0.4 q=40.2 size=     256KiB time=00:00:00.96 bitrate=2169.8kbits/s speed=0.0134x elapsed=0:01:11.92    \nframe=   31 fps=0.4 q=40.2 size=     256KiB time=00:00:00.96 bitrate=2169.8kbits/s speed=0.0133x elapsed=0:01:12.52    \nframe=   31 fps=0.4 q=40.2 size=     256KiB time=00:00:00.96 bitrate=2169.8kbits/s speed=0.0132x elapsed=0:01:13.16    \nframe=   31 fps=0.4 q=40.2 size=     256KiB time=00:00:00.96 bitrate=2169.8kbits/s speed=0.0131x elapsed=0:01:13.75    \nframe=   31 fps=0.4 q=40.2 size=     256KiB time=00:00:00.96 bitrate=2169.8kbits/s speed=0.013x elapsed=0:01:14.30    \nframe=   32 fps=0.4 q=41.8 size=     256KiB time=00:00:01.00 bitrate=2097.5kbits/s speed=0.0134x elapsed=0:01:14.84    \nframe=   32 fps=0.4 q=41.8 size=     256KiB time=00:00:01.00 bitrate=2097.5kbits/s speed=0.0133x elapsed=0:01:15.41    \nframe=   32 fps=0.4 q=41.8 size=     256KiB time=00:00:01.00 bitrate=2097.5kbits/s speed=0.0132x elapsed=0:01:15.97    \nframe=   32 fps=0.4 q=41.8 size=     256KiB time=00:00:01.00 bitrate=2097.5kbits/s speed=0.0131x elapsed=0:01:16.55    \nframe=   33 fps=0.4 q=45.0 size=     256KiB time=00:00:01.03 bitrate=2029.8kbits/s speed=0.0134x elapsed=0:01:17.07    \nframe=   33 fps=0.4 q=45.0 size=     256KiB time=00:00:01.03 bitrate=2029.8kbits/s speed=0.0133x elapsed=0:01:17.65    \nframe=   33 fps=0.4 q=45.0 size=     256KiB time=00:00:01.03 bitrate=2029.8kbits/s speed=0.0132x elapsed=0:01:18.19    \nframe=   34 fps=0.4 q=45.0 size=     256KiB time=00:00:01.06 bitrate=1966.4kbits/s speed=0.0135x elapsed=0:01:18.78    \nframe=   34 fps=0.4 q=45.0 size=     256KiB time=00:00:01.06 bitrate=1966.4kbits/s speed=0.0134x elapsed=0:01:19.30    \nframe=   34 fps=0.4 q=45.0 size=     256KiB time=00:00:01.06 bitrate=1966.4kbits/s speed=0.0134x elapsed=0:01:19.84    \nframe=   34 fps=0.4 q=45.0 size=     256KiB time=00:00:01.06 bitrate=1966.4kbits/s speed=0.0133x elapsed=0:01:20.36    \nframe=   34 fps=0.4 q=45.0 size=     256KiB time=00:00:01.06 bitrate=1966.4kbits/s speed=0.0132x elapsed=0:01:20.88    \nframe=   35 fps=0.4 q=45.0 size=     256KiB time=00:00:01.10 bitrate=1906.8kbits/s speed=0.0135x elapsed=0:01:21.38    \nframe=   36 fps=0.4 q=40.3 size=     256KiB time=00:00:01.13 bitrate=1850.7kbits/s speed=0.0138x elapsed=0:01:21.90    \nframe=   36 fps=0.4 q=40.3 size=     256KiB time=00:00:01.13 bitrate=1850.7kbits/s speed=0.0138x elapsed=0:01:22.42    \nframe=   36 fps=0.4 q=40.3 size=     256KiB time=00:00:01.13 bitrate=1850.7kbits/s speed=0.0137x elapsed=0:01:22.95    \nframe=   36 fps=0.4 q=40.3 size=     256KiB time=00:00:01.13 bitrate=1850.7kbits/s speed=0.0136x elapsed=0:01:23.47    \nframe=   37 fps=0.4 q=43.6 size=     256KiB time=00:00:01.16 bitrate=1797.9kbits/s speed=0.0139x elapsed=0:01:24.01    \nframe=   37 fps=0.4 q=43.6 size=     256KiB time=00:00:01.16 bitrate=1797.9kbits/s speed=0.0138x elapsed=0:01:24.57    \nframe=   37 fps=0.4 q=43.6 size=     256KiB time=00:00:01.16 bitrate=1797.9kbits/s speed=0.0137x elapsed=0:01:25.10    \nframe=   37 fps=0.4 q=43.6 size=     256KiB time=00:00:01.16 bitrate=1797.9kbits/s speed=0.0136x elapsed=0:01:25.62    \nframe=   38 fps=0.4 q=45.1 size=     256KiB time=00:00:01.20 bitrate=1747.9kbits/s speed=0.0139x elapsed=0:01:26.18    \nframe=   38 fps=0.4 q=45.1 size=     256KiB time=00:00:01.20 bitrate=1747.9kbits/s speed=0.0138x elapsed=0:01:26.74    \nframe=   38 fps=0.4 q=45.1 size=     256KiB time=00:00:01.20 bitrate=1747.9kbits/s speed=0.0137x elapsed=0:01:27.27    \nframe=   38 fps=0.4 q=45.1 size=     256KiB time=00:00:01.20 bitrate=1747.9kbits/s speed=0.0137x elapsed=0:01:27.80    \nframe=   38 fps=0.4 q=45.1 size=     256KiB time=00:00:01.20 bitrate=1747.9kbits/s speed=0.0136x elapsed=0:01:28.35    \nframe=   39 fps=0.4 q=45.1 size=     256KiB time=00:00:01.23 bitrate=1700.7kbits/s speed=0.0139x elapsed=0:01:28.87    \nframe=   39 fps=0.4 q=45.1 size=     256KiB time=00:00:01.23 bitrate=1700.7kbits/s speed=0.0138x elapsed=0:01:29.40    \nframe=   39 fps=0.4 q=45.1 size=     256KiB time=00:00:01.23 bitrate=1700.7kbits/s speed=0.0137x elapsed=0:01:29.94    \nframe=   40 fps=0.4 q=45.1 size=     512KiB time=00:00:01.26 bitrate=3311.6kbits/s speed=0.014x elapsed=0:01:30.47    \nframe=   40 fps=0.4 q=45.1 size=     512KiB time=00:00:01.26 bitrate=3311.6kbits/s speed=0.0139x elapsed=0:01:30.99    \nframe=   40 fps=0.4 q=45.1 size=     512KiB time=00:00:01.26 bitrate=3311.6kbits/s speed=0.0138x elapsed=0:01:31.52    \nframe=   40 fps=0.4 q=45.1 size=     512KiB time=00:00:01.26 bitrate=3311.6kbits/s speed=0.0138x elapsed=0:01:32.08    \nframe=   40 fps=0.4 q=45.1 size=     512KiB time=00:00:01.26 bitrate=3311.6kbits/s speed=0.0137x elapsed=0:01:32.63    \nframe=   40 fps=0.4 q=45.1 size=     512KiB time=00:00:01.26 bitrate=3311.6kbits/s speed=0.0136x elapsed=0:01:33.27    \nframe=   40 fps=0.4 q=45.1 size=     512KiB time=00:00:01.26 bitrate=3311.6kbits/s speed=0.0135x elapsed=0:01:33.95    \nframe=   40 fps=0.4 q=45.1 size=     512KiB time=00:00:01.26 bitrate=3311.6kbits/s speed=0.0134x elapsed=0:01:34.53    \nframe=   40 fps=0.4 q=45.1 size=     512KiB time=00:00:01.26 bitrate=3311.6kbits/s speed=0.0133x elapsed=0:01:35.08    \nframe=   41 fps=0.4 q=40.3 size=     512KiB time=00:00:01.26 bitrate=3311.6kbits/s speed=0.0133x elapsed=0:01:35.58    \nframe=   41 fps=0.4 q=40.3 size=     512KiB time=00:00:01.30 bitrate=3226.7kbits/s speed=0.0135x elapsed=0:01:36.11    \nframe=   41 fps=0.4 q=40.3 size=     512KiB time=00:00:01.30 bitrate=3226.7kbits/s speed=0.0134x elapsed=0:01:36.66    \nframe=   41 fps=0.4 q=40.3 size=     512KiB time=00:00:01.30 bitrate=3226.7kbits/s speed=0.0134x elapsed=0:01:37.18    \nframe=   41 fps=0.4 q=40.3 size=     512KiB time=00:00:01.30 bitrate=3226.7kbits/s speed=0.0133x elapsed=0:01:37.72    \nframe=   42 fps=0.4 q=44.0 size=     512KiB time=00:00:01.33 bitrate=3146.0kbits/s speed=0.0136x elapsed=0:01:38.24    \nframe=   42 fps=0.4 q=44.0 size=     512KiB time=00:00:01.33 bitrate=3146.0kbits/s speed=0.0135x elapsed=0:01:38.78    \nframe=   43 fps=0.4 q=45.1 size=     512KiB time=00:00:01.36 bitrate=3069.3kbits/s speed=0.0138x elapsed=0:01:39.32    \nframe=   43 fps=0.4 q=45.1 size=     512KiB time=00:00:01.36 bitrate=3069.3kbits/s speed=0.0137x elapsed=0:01:39.90    \nframe=   43 fps=0.4 q=45.1 size=     512KiB time=00:00:01.36 bitrate=3069.3kbits/s speed=0.0136x elapsed=0:01:40.46    \nframe=   43 fps=0.4 q=45.1 size=     512KiB time=00:00:01.36 bitrate=3069.3kbits/s speed=0.0135x elapsed=0:01:41.00    \nframe=   43 fps=0.4 q=45.1 size=     512KiB time=00:00:01.36 bitrate=3069.3kbits/s speed=0.0135x elapsed=0:01:41.55    \nframe=   44 fps=0.4 q=45.1 size=     512KiB time=00:00:01.40 bitrate=2996.2kbits/s speed=0.0137x elapsed=0:01:42.11    \nframe=   44 fps=0.4 q=45.1 size=     512KiB time=00:00:01.40 bitrate=2996.2kbits/s speed=0.0136x elapsed=0:01:42.64    \nframe=   44 fps=0.4 q=45.1 size=     512KiB time=00:00:01.40 bitrate=2996.2kbits/s speed=0.0136x elapsed=0:01:43.19    \nframe=   44 fps=0.4 q=45.1 size=     512KiB time=00:00:01.40 bitrate=2996.2kbits/s speed=0.0135x elapsed=0:01:43.73    \nframe=   44 fps=0.4 q=45.1 size=     512KiB time=00:00:01.40 bitrate=2996.2kbits/s speed=0.0134x elapsed=0:01:44.27    \nframe=   44 fps=0.4 q=45.1 size=     512KiB time=00:00:01.40 bitrate=2996.2kbits/s speed=0.0134x elapsed=0:01:44.80    \nframe=   44 fps=0.4 q=45.1 size=     512KiB time=00:00:01.40 bitrate=2996.2kbits/s speed=0.0133x elapsed=0:01:45.34    \nframe=   45 fps=0.4 q=45.1 size=     512KiB time=00:00:01.43 bitrate=2926.5kbits/s speed=0.0135x elapsed=0:01:45.89    \nframe=   45 fps=0.4 q=45.1 size=     512KiB time=00:00:01.43 bitrate=2926.5kbits/s speed=0.0135x elapsed=0:01:46.43    \nframe=   45 fps=0.4 q=45.1 size=     512KiB time=00:00:01.43 bitrate=2926.5kbits/s speed=0.0134x elapsed=0:01:46.94    \nframe=   45 fps=0.4 q=45.1 size=     512KiB time=00:00:01.43 bitrate=2926.5kbits/s speed=0.0133x elapsed=0:01:47.47    \nframe=   46 fps=0.4 q=40.4 size=     512KiB time=00:00:01.46 bitrate=2860.0kbits/s speed=0.0136x elapsed=0:01:48.02    \nframe=   46 fps=0.4 q=40.4 size=     512KiB time=00:00:01.46 bitrate=2860.0kbits/s speed=0.0135x elapsed=0:01:48.58    \nframe=   47 fps=0.4 q=44.1 size=     512KiB time=00:00:01.50 bitrate=2796.4kbits/s speed=0.0137x elapsed=0:01:49.12    \nframe=   47 fps=0.4 q=44.1 size=     512KiB time=00:00:01.50 bitrate=2796.4kbits/s speed=0.0137x elapsed=0:01:49.69    \nframe=   47 fps=0.4 q=44.1 size=     512KiB time=00:00:01.50 bitrate=2796.4kbits/s speed=0.0136x elapsed=0:01:50.25    \nframe=   47 fps=0.4 q=44.1 size=     512KiB time=00:00:01.50 bitrate=2796.4kbits/s speed=0.0135x elapsed=0:01:50.81    \nframe=   47 fps=0.4 q=44.1 size=     512KiB time=00:00:01.50 bitrate=2796.4kbits/s speed=0.0135x elapsed=0:01:51.33    \nframe=   47 fps=0.4 q=44.1 size=     512KiB time=00:00:01.50 bitrate=2796.4kbits/s speed=0.0134x elapsed=0:01:51.85    \nframe=   47 fps=0.4 q=44.1 size=     512KiB time=00:00:01.50 bitrate=2796.4kbits/s speed=0.0133x elapsed=0:01:52.41    \nframe=   48 fps=0.4 q=45.1 size=     512KiB time=00:00:01.53 bitrate=2735.6kbits/s speed=0.0136x elapsed=0:01:52.94    \nframe=   49 fps=0.4 q=45.1 size=     512KiB time=00:00:01.56 bitrate=2677.4kbits/s speed=0.0138x elapsed=0:01:53.53    \nframe=   49 fps=0.4 q=45.1 size=     512KiB time=00:00:01.56 bitrate=2677.4kbits/s speed=0.0137x elapsed=0:01:54.06    \nframe=   49 fps=0.4 q=45.1 size=     512KiB time=00:00:01.56 bitrate=2677.4kbits/s speed=0.0137x elapsed=0:01:54.59    \nframe=   49 fps=0.4 q=45.1 size=     512KiB time=00:00:01.56 bitrate=2677.4kbits/s speed=0.0136x elapsed=0:01:55.15    \nframe=   49 fps=0.4 q=45.1 size=     512KiB time=00:00:01.56 bitrate=2677.4kbits/s speed=0.0135x elapsed=0:01:55.68    \nframe=   49 fps=0.4 q=45.1 size=     512KiB time=00:00:01.56 bitrate=2677.4kbits/s speed=0.0135x elapsed=0:01:56.22    \nframe=   50 fps=0.4 q=45.1 size=     512KiB time=00:00:01.60 bitrate=2621.7kbits/s speed=0.0137x elapsed=0:01:56.74    \nframe=   50 fps=0.4 q=45.1 size=     512KiB time=00:00:01.60 bitrate=2621.7kbits/s speed=0.0136x elapsed=0:01:57.25    \nframe=   51 fps=0.4 q=40.3 size=     512KiB time=00:00:01.63 bitrate=2568.2kbits/s speed=0.0139x elapsed=0:01:57.77    \nframe=   51 fps=0.4 q=40.3 size=     512KiB time=00:00:01.63 bitrate=2568.2kbits/s speed=0.0138x elapsed=0:01:58.29    \nframe=   52 fps=0.4 q=44.0 size=     512KiB time=00:00:01.66 bitrate=2516.8kbits/s speed=0.014x elapsed=0:01:58.84    \nframe=   53 fps=0.4 q=45.2 size=     512KiB time=00:00:01.70 bitrate=2467.4kbits/s speed=0.0142x elapsed=0:01:59.37    \nframe=   53 fps=0.4 q=45.2 size=     512KiB time=00:00:01.70 bitrate=2467.4kbits/s speed=0.0142x elapsed=0:01:59.88    \nframe=   54 fps=0.4 q=45.2 size=     512KiB time=00:00:01.73 bitrate=2420.0kbits/s speed=0.0144x elapsed=0:02:00.40    \nframe=   54 fps=0.4 q=45.2 size=     512KiB time=00:00:01.73 bitrate=2420.0kbits/s speed=0.0143x elapsed=0:02:00.92    \nframe=   55 fps=0.5 q=45.1 size=     512KiB time=00:00:01.76 bitrate=2374.3kbits/s speed=0.0145x elapsed=0:02:01.43    \nframe=   56 fps=0.5 q=40.4 size=     512KiB time=00:00:01.80 bitrate=2330.4kbits/s speed=0.0148x elapsed=0:02:01.95    \nframe=   57 fps=0.5 q=43.9 size=     512KiB time=00:00:01.83 bitrate=2288.0kbits/s speed=0.015x elapsed=0:02:02.47    \nframe=   57 fps=0.5 q=43.9 size=     512KiB time=00:00:01.83 bitrate=2288.0kbits/s speed=0.0149x elapsed=0:02:02.99    \nframe=   58 fps=0.5 q=45.1 size=     512KiB time=00:00:01.86 bitrate=2247.1kbits/s speed=0.0151x elapsed=0:02:03.51    \nframe=   58 fps=0.5 q=45.1 size=     512KiB time=00:00:01.86 bitrate=2247.1kbits/s speed=0.015x elapsed=0:02:04.03    \nframe=   58 fps=0.5 q=45.1 size=     512KiB time=00:00:01.86 bitrate=2247.1kbits/s speed=0.015x elapsed=0:02:04.56    \nframe=   60 fps=0.5 q=45.0 size=     512KiB time=00:00:01.93 bitrate=2169.7kbits/s speed=0.0155x elapsed=0:02:05.09    \nframe=   60 fps=0.5 q=45.0 size=     512KiB time=00:00:01.93 bitrate=2169.7kbits/s speed=0.0154x elapsed=0:02:05.62    \nframe=   61 fps=0.5 q=40.5 size=     512KiB time=00:00:01.96 bitrate=2132.9kbits/s speed=0.0156x elapsed=0:02:06.15    \nframe=   61 fps=0.5 q=40.5 size=     512KiB time=00:00:01.96 bitrate=2132.9kbits/s speed=0.0155x elapsed=0:02:06.68    \nframe=   61 fps=0.5 q=40.5 size=     512KiB time=00:00:01.96 bitrate=2132.9kbits/s speed=0.0155x elapsed=0:02:07.21    \nframe=   61 fps=0.5 q=40.5 size=     512KiB time=00:00:01.96 bitrate=2132.9kbits/s speed=0.0154x elapsed=0:02:07.75    \nframe=   62 fps=0.5 q=43.9 size=     768KiB time=00:00:02.00 bitrate=3145.9kbits/s speed=0.0156x elapsed=0:02:08.27    \nframe=   62 fps=0.5 q=43.9 size=     768KiB time=00:00:02.00 bitrate=3145.9kbits/s speed=0.0155x elapsed=0:02:08.79    \nframe=   62 fps=0.5 q=43.9 size=     768KiB time=00:00:02.00 bitrate=3145.9kbits/s speed=0.0155x elapsed=0:02:09.31    \nframe=   63 fps=0.5 q=45.2 size=     768KiB time=00:00:02.03 bitrate=3094.3kbits/s speed=0.0157x elapsed=0:02:09.83    \nframe=   65 fps=0.5 q=45.1 size=     768KiB time=00:00:02.10 bitrate=2996.1kbits/s speed=0.0161x elapsed=0:02:10.35    \nframe=   65 fps=0.5 q=45.1 size=     768KiB time=00:00:02.10 bitrate=2996.1kbits/s speed=0.016x elapsed=0:02:10.88    \nframe=   65 fps=0.5 q=45.1 size=     768KiB time=00:00:02.10 bitrate=2996.1kbits/s speed=0.016x elapsed=0:02:11.41    \nframe=   65 fps=0.5 q=45.1 size=     768KiB time=00:00:02.10 bitrate=2996.1kbits/s speed=0.0159x elapsed=0:02:11.95    \nframe=   65 fps=0.5 q=45.1 size=     768KiB time=00:00:02.10 bitrate=2996.1kbits/s speed=0.0159x elapsed=0:02:12.46    \nframe=   66 fps=0.5 q=40.4 size=     768KiB time=00:00:02.13 bitrate=2949.3kbits/s speed=0.016x elapsed=0:02:12.99    \nframe=   66 fps=0.5 q=40.4 size=     768KiB time=00:00:02.13 bitrate=2949.3kbits/s speed=0.016x elapsed=0:02:13.51    \nframe=   67 fps=0.5 q=43.9 size=     768KiB time=00:00:02.16 bitrate=2903.9kbits/s speed=0.0162x elapsed=0:02:14.02    \nframe=   67 fps=0.5 q=43.9 size=     768KiB time=00:00:02.16 bitrate=2903.9kbits/s speed=0.0161x elapsed=0:02:14.54    \nframe=   67 fps=0.5 q=43.9 size=     768KiB time=00:00:02.16 bitrate=2903.9kbits/s speed=0.016x elapsed=0:02:15.06    \nframe=   69 fps=0.5 q=45.2 size=     768KiB time=00:00:02.23 bitrate=2817.2kbits/s speed=0.0165x elapsed=0:02:15.58    \nframe=   69 fps=0.5 q=45.2 size=     768KiB time=00:00:02.23 bitrate=2817.2kbits/s speed=0.0164x elapsed=0:02:16.12    \nframe=   69 fps=0.5 q=45.2 size=     768KiB time=00:00:02.23 bitrate=2817.2kbits/s speed=0.0163x elapsed=0:02:16.64    \nframe=   70 fps=0.5 q=45.1 size=     768KiB time=00:00:02.26 bitrate=2775.8kbits/s speed=0.0165x elapsed=0:02:17.19    \nframe=   70 fps=0.5 q=45.1 size=     768KiB time=00:00:02.26 bitrate=2775.8kbits/s speed=0.0165x elapsed=0:02:17.73    \nframe=   70 fps=0.5 q=45.1 size=     768KiB time=00:00:02.26 bitrate=2775.8kbits/s speed=0.0164x elapsed=0:02:18.24    \nframe=   70 fps=0.5 q=45.1 size=     768KiB time=00:00:02.26 bitrate=2775.8kbits/s speed=0.0163x elapsed=0:02:18.78    \nframe=   70 fps=0.5 q=45.1 size=     768KiB time=00:00:02.26 bitrate=2775.8kbits/s speed=0.0163x elapsed=0:02:19.30    \nframe=   71 fps=0.5 q=40.7 size=     768KiB time=00:00:02.30 bitrate=2735.6kbits/s speed=0.0164x elapsed=0:02:19.84    \nframe=   71 fps=0.5 q=40.7 size=     768KiB time=00:00:02.30 bitrate=2735.6kbits/s speed=0.0164x elapsed=0:02:20.36    \nframe=   71 fps=0.5 q=40.7 size=     768KiB time=00:00:02.30 bitrate=2735.6kbits/s speed=0.0163x elapsed=0:02:20.89    \nframe=   71 fps=0.5 q=40.7 size=     768KiB time=00:00:02.30 bitrate=2735.6kbits/s speed=0.0163x elapsed=0:02:21.42    \nframe=   71 fps=0.5 q=40.7 size=     768KiB time=00:00:02.30 bitrate=2735.6kbits/s speed=0.0162x elapsed=0:02:21.97    \nframe=   71 fps=0.5 q=40.7 size=     768KiB time=00:00:02.30 bitrate=2735.6kbits/s speed=0.0161x elapsed=0:02:22.49    \nframe=   71 fps=0.5 q=40.7 size=     768KiB time=00:00:02.30 bitrate=2735.6kbits/s speed=0.0161x elapsed=0:02:23.07    \nframe=   72 fps=0.5 q=43.4 size=     768KiB time=00:00:02.33 bitrate=2696.5kbits/s speed=0.0162x elapsed=0:02:23.69    \nframe=   72 fps=0.5 q=43.4 size=     768KiB time=00:00:02.33 bitrate=2696.5kbits/s speed=0.0162x elapsed=0:02:24.26    \nframe=   72 fps=0.5 q=43.4 size=     768KiB time=00:00:02.33 bitrate=2696.5kbits/s speed=0.0161x elapsed=0:02:24.83    \nframe=   72 fps=0.5 q=43.4 size=     768KiB time=00:00:02.33 bitrate=2696.5kbits/s speed=0.016x elapsed=0:02:25.41    \nframe=   72 fps=0.5 q=43.4 size=     768KiB time=00:00:02.33 bitrate=2696.5kbits/s speed=0.016x elapsed=0:02:26.04    \nframe=   72 fps=0.5 q=43.4 size=     768KiB time=00:00:02.33 bitrate=2696.5kbits/s speed=0.0159x elapsed=0:02:26.66    \nframe=   72 fps=0.5 q=43.4 size=     768KiB time=00:00:02.33 bitrate=2696.5kbits/s speed=0.0158x elapsed=0:02:27.25    \nframe=   72 fps=0.5 q=43.4 size=     768KiB time=00:00:02.33 bitrate=2696.5kbits/s speed=0.0158x elapsed=0:02:27.89    \nframe=   72 fps=0.5 q=43.4 size=     768KiB time=00:00:02.33 bitrate=2696.5kbits/s speed=0.0157x elapsed=0:02:28.44    \nframe=   73 fps=0.5 q=45.7 size=     768KiB time=00:00:02.36 bitrate=2658.5kbits/s speed=0.0159x elapsed=0:02:29.03    \nframe=   73 fps=0.5 q=45.7 size=     768KiB time=00:00:02.36 bitrate=2658.5kbits/s speed=0.0158x elapsed=0:02:29.78    \nframe=   75 fps=0.5 q=40.6 size=     768KiB time=00:00:02.40 bitrate=2621.6kbits/s speed=0.0159x elapsed=0:02:30.47    \nframe=   75 fps=0.5 q=40.6 size=     768KiB time=00:00:02.43 bitrate=2585.7kbits/s speed=0.0161x elapsed=0:02:31.03    \nframe=   75 fps=0.5 q=40.6 size=     768KiB time=00:00:02.43 bitrate=2585.7kbits/s speed=0.016x elapsed=0:02:31.63    \nframe=   75 fps=0.5 q=40.6 size=     768KiB time=00:00:02.43 bitrate=2585.7kbits/s speed=0.016x elapsed=0:02:32.34    \nframe=   75 fps=0.5 q=40.6 size=     768KiB time=00:00:02.43 bitrate=2585.7kbits/s speed=0.0159x elapsed=0:02:33.00    \nframe=   75 fps=0.5 q=40.6 size=     768KiB time=00:00:02.43 bitrate=2585.7kbits/s speed=0.0158x elapsed=0:02:33.61    \nframe=   75 fps=0.5 q=40.6 size=     768KiB time=00:00:02.43 bitrate=2585.7kbits/s speed=0.0158x elapsed=0:02:34.37    \nframe=   75 fps=0.5 q=40.6 size=     768KiB time=00:00:02.43 bitrate=2585.7kbits/s speed=0.0157x elapsed=0:02:35.10    \nframe=   75 fps=0.5 q=40.6 size=     768KiB time=00:00:02.43 bitrate=2585.7kbits/s speed=0.0156x elapsed=0:02:35.83    \nframe=   75 fps=0.5 q=40.6 size=     768KiB time=00:00:02.43 bitrate=2585.7kbits/s speed=0.0155x elapsed=0:02:36.55    \nframe=   75 fps=0.5 q=40.6 size=     768KiB time=00:00:02.43 bitrate=2585.7kbits/s speed=0.0155x elapsed=0:02:37.27    \nframe=   75 fps=0.5 q=40.6 size=     768KiB time=00:00:02.43 bitrate=2585.7kbits/s speed=0.0154x elapsed=0:02:37.82    \nframe=   75 fps=0.5 q=40.6 size=     768KiB time=00:00:02.43 bitrate=2585.7kbits/s speed=0.0154x elapsed=0:02:38.48    \nframe=   75 fps=0.5 q=40.6 size=     768KiB time=00:00:02.43 bitrate=2585.7kbits/s speed=0.0153x elapsed=0:02:39.22    \nframe=   75 fps=0.5 q=40.6 size=     768KiB time=00:00:02.43 bitrate=2585.7kbits/s speed=0.0152x elapsed=0:02:39.95    \nframe=   75 fps=0.5 q=40.6 size=     768KiB time=00:00:02.43 bitrate=2585.7kbits/s speed=0.0152x elapsed=0:02:40.60    \nframe=   75 fps=0.5 q=40.6 size=     768KiB time=00:00:02.43 bitrate=2585.7kbits/s speed=0.0151x elapsed=0:02:41.18    \nframe=   75 fps=0.5 q=40.6 size=     768KiB time=00:00:02.43 bitrate=2585.7kbits/s speed=0.015x elapsed=0:02:41.88    \nframe=   75 fps=0.5 q=40.6 size=     768KiB time=00:00:02.43 bitrate=2585.7kbits/s speed=0.015x elapsed=0:02:42.51    \nframe=   75 fps=0.5 q=40.6 size=     768KiB time=00:00:02.43 bitrate=2585.7kbits/s speed=0.0149x elapsed=0:02:43.16    \nframe=   75 fps=0.5 q=40.6 size=     768KiB time=00:00:02.43 bitrate=2585.7kbits/s speed=0.0149x elapsed=0:02:43.72    \nframe=   75 fps=0.5 q=40.6 size=     768KiB time=00:00:02.43 bitrate=2585.7kbits/s speed=0.0148x elapsed=0:02:44.42    \nframe=   75 fps=0.5 q=40.6 size=     768KiB time=00:00:02.43 bitrate=2585.7kbits/s speed=0.0147x elapsed=0:02:45.13    \nframe=   75 fps=0.5 q=40.6 size=     768KiB time=00:00:02.43 bitrate=2585.7kbits/s speed=0.0147x elapsed=0:02:45.88    \nframe=   75 fps=0.5 q=40.6 size=     768KiB time=00:00:02.43 bitrate=2585.7kbits/s speed=0.0146x elapsed=0:02:46.55    \nframe=   75 fps=0.4 q=40.6 size=     768KiB time=00:00:02.43 bitrate=2585.7kbits/s speed=0.0146x elapsed=0:02:47.11    \nframe=   75 fps=0.4 q=40.6 size=     768KiB time=00:00:02.43 bitrate=2585.7kbits/s speed=0.0145x elapsed=0:02:47.75    \nframe=   75 fps=0.4 q=40.6 size=     768KiB time=00:00:02.43 bitrate=2585.7kbits/s speed=0.0144x elapsed=0:02:48.43    \nframe=   75 fps=0.4 q=40.6 size=     768KiB time=00:00:02.43 bitrate=2585.7kbits/s speed=0.0144x elapsed=0:02:49.10    \nframe=   75 fps=0.4 q=40.6 size=     768KiB time=00:00:02.43 bitrate=2585.7kbits/s speed=0.0143x elapsed=0:02:49.73    \nframe=   75 fps=0.4 q=40.6 size=     768KiB time=00:00:02.43 bitrate=2585.7kbits/s speed=0.0143x elapsed=0:02:50.29    \nframe=   75 fps=0.4 q=40.6 size=     768KiB time=00:00:02.43 bitrate=2585.7kbits/s speed=0.0142x elapsed=0:02:50.90    \nframe=   75 fps=0.4 q=40.6 size=     768KiB time=00:00:02.43 bitrate=2585.7kbits/s speed=0.0142x elapsed=0:02:51.58    \nframe=   75 fps=0.4 q=40.6 size=     768KiB time=00:00:02.43 bitrate=2585.7kbits/s speed=0.0141x elapsed=0:02:52.28    \nframe=   75 fps=0.4 q=40.6 size=     768KiB time=00:00:02.43 bitrate=2585.7kbits/s speed=0.0141x elapsed=0:02:52.96    \nframe=   75 fps=0.4 q=40.6 size=     768KiB time=00:00:02.43 bitrate=2585.7kbits/s speed=0.014x elapsed=0:02:53.66    \nframe=   75 fps=0.4 q=40.6 size=     768KiB time=00:00:02.43 bitrate=2585.7kbits/s speed=0.014x elapsed=0:02:54.20    \nframe=   76 fps=0.4 q=43.4 size=     768KiB time=00:00:02.46 bitrate=2550.7kbits/s speed=0.0141x elapsed=0:02:54.75    \nframe=   76 fps=0.4 q=43.4 size=     768KiB time=00:00:02.46 bitrate=2550.7kbits/s speed=0.0141x elapsed=0:02:55.27    \nframe=   76 fps=0.4 q=43.4 size=     768KiB time=00:00:02.46 bitrate=2550.7kbits/s speed=0.014x elapsed=0:02:55.80    \nframe=   76 fps=0.4 q=43.4 size=     768KiB time=00:00:02.46 bitrate=2550.7kbits/s speed=0.014x elapsed=0:02:56.31    \nframe=   76 fps=0.4 q=43.4 size=     768KiB time=00:00:02.46 bitrate=2550.7kbits/s speed=0.0139x elapsed=0:02:56.82    \nframe=   76 fps=0.4 q=43.4 size=     768KiB time=00:00:02.46 bitrate=2550.7kbits/s speed=0.0139x elapsed=0:02:57.39    \nframe=   78 fps=0.4 q=45.2 size=     768KiB time=00:00:02.53 bitrate=2483.6kbits/s speed=0.0142x elapsed=0:02:57.90    \nframe=   78 fps=0.4 q=45.2 size=     768KiB time=00:00:02.53 bitrate=2483.6kbits/s speed=0.0142x elapsed=0:02:58.42    \nframe=   79 fps=0.4 q=45.1 size=     768KiB time=00:00:02.56 bitrate=2451.4kbits/s speed=0.0143x elapsed=0:02:58.94    \nframe=   79 fps=0.4 q=45.1 size=     768KiB time=00:00:02.56 bitrate=2451.4kbits/s speed=0.0143x elapsed=0:02:59.46    \nframe=   79 fps=0.4 q=45.1 size=     768KiB time=00:00:02.56 bitrate=2451.4kbits/s speed=0.0143x elapsed=0:03:00.00    \nframe=   80 fps=0.4 q=40.3 size=     768KiB time=00:00:02.60 bitrate=2419.9kbits/s speed=0.0144x elapsed=0:03:00.54    \nframe=   80 fps=0.4 q=40.3 size=     768KiB time=00:00:02.60 bitrate=2419.9kbits/s speed=0.0144x elapsed=0:03:01.06    \nframe=   81 fps=0.4 q=41.7 size=     768KiB time=00:00:02.63 bitrate=2389.3kbits/s speed=0.0145x elapsed=0:03:01.58    \nframe=   81 fps=0.4 q=41.7 size=     768KiB time=00:00:02.63 bitrate=2389.3kbits/s speed=0.0145x elapsed=0:03:02.11    \nframe=   81 fps=0.4 q=41.7 size=     768KiB time=00:00:02.63 bitrate=2389.3kbits/s speed=0.0144x elapsed=0:03:02.62    \nframe=   82 fps=0.4 q=45.7 size=     768KiB time=00:00:02.66 bitrate=2359.4kbits/s speed=0.0146x elapsed=0:03:03.16    \nframe=   83 fps=0.5 q=45.8 size=     768KiB time=00:00:02.70 bitrate=2330.3kbits/s speed=0.0147x elapsed=0:03:03.67    \nframe=   84 fps=0.5 q=45.8 size=    1024KiB time=00:00:02.73 bitrate=3069.1kbits/s speed=0.0148x elapsed=0:03:04.18    \nframe=   84 fps=0.5 q=45.8 size=    1024KiB time=00:00:02.73 bitrate=3069.1kbits/s speed=0.0148x elapsed=0:03:04.72    \nframe=   84 fps=0.5 q=45.8 size=    1024KiB time=00:00:02.73 bitrate=3069.1kbits/s speed=0.0148x elapsed=0:03:05.28    \nframe=   85 fps=0.5 q=40.2 size=    1024KiB time=00:00:02.76 bitrate=3032.2kbits/s speed=0.0149x elapsed=0:03:05.80    \nframe=   85 fps=0.5 q=40.2 size=    1024KiB time=00:00:02.76 bitrate=3032.2kbits/s speed=0.0148x elapsed=0:03:06.35    \nframe=   85 fps=0.5 q=40.2 size=    1024KiB time=00:00:02.76 bitrate=3032.2kbits/s speed=0.0148x elapsed=0:03:06.89    \nframe=   85 fps=0.5 q=40.2 size=    1024KiB time=00:00:02.76 bitrate=3032.2kbits/s speed=0.0148x elapsed=0:03:07.42    \nframe=   86 fps=0.5 q=43.5 size=    1024KiB time=00:00:02.80 bitrate=2996.1kbits/s speed=0.0149x elapsed=0:03:07.94    \nframe=   86 fps=0.5 q=43.5 size=    1024KiB time=00:00:02.80 bitrate=2996.1kbits/s speed=0.0149x elapsed=0:03:08.46    \nframe=   88 fps=0.5 q=45.1 size=    1024KiB time=00:00:02.86 bitrate=2926.4kbits/s speed=0.0152x elapsed=0:03:08.96    \nframe=   88 fps=0.5 q=45.1 size=    1024KiB time=00:00:02.86 bitrate=2926.4kbits/s speed=0.0151x elapsed=0:03:09.50    \nframe=   88 fps=0.5 q=45.1 size=    1024KiB time=00:00:02.86 bitrate=2926.4kbits/s speed=0.0151x elapsed=0:03:10.05    \nframe=   88 fps=0.5 q=45.1 size=    1024KiB time=00:00:02.86 bitrate=2926.4kbits/s speed=0.015x elapsed=0:03:10.56    \nframe=   88 fps=0.5 q=45.1 size=    1024KiB time=00:00:02.86 bitrate=2926.4kbits/s speed=0.015x elapsed=0:03:11.09    \nframe=   89 fps=0.5 q=40.2 size=    1024KiB time=00:00:02.90 bitrate=2892.7kbits/s speed=0.0151x elapsed=0:03:11.62    \nframe=   89 fps=0.5 q=40.2 size=    1024KiB time=00:00:02.90 bitrate=2892.7kbits/s speed=0.0151x elapsed=0:03:12.13    \nframe=   90 fps=0.5 q=43.4 size=    1024KiB time=00:00:02.93 bitrate=2859.9kbits/s speed=0.0152x elapsed=0:03:12.65    \nframe=   90 fps=0.5 q=43.4 size=    1024KiB time=00:00:02.93 bitrate=2859.9kbits/s speed=0.0152x elapsed=0:03:13.19    \nframe=   90 fps=0.5 q=43.4 size=    1024KiB time=00:00:02.93 bitrate=2859.9kbits/s speed=0.0151x elapsed=0:03:13.71    \nframe=   90 fps=0.5 q=43.4 size=    1024KiB time=00:00:02.93 bitrate=2859.9kbits/s speed=0.0151x elapsed=0:03:14.24    \nframe=   91 fps=0.5 q=45.2 size=    1024KiB time=00:00:02.96 bitrate=2827.7kbits/s speed=0.0152x elapsed=0:03:14.80    \nframe=   91 fps=0.5 q=45.2 size=    1024KiB time=00:00:02.96 bitrate=2827.7kbits/s speed=0.0152x elapsed=0:03:15.33    \nframe=   92 fps=0.5 q=45.2 size=    1024KiB time=00:00:03.00 bitrate=2796.3kbits/s speed=0.0153x elapsed=0:03:15.87    \nframe=   92 fps=0.5 q=45.2 size=    1024KiB time=00:00:03.00 bitrate=2796.3kbits/s speed=0.0153x elapsed=0:03:16.39    \nframe=   93 fps=0.5 q=45.2 size=    1024KiB time=00:00:03.03 bitrate=2765.6kbits/s speed=0.0154x elapsed=0:03:16.92    \nframe=   93 fps=0.5 q=45.2 size=    1024KiB time=00:00:03.03 bitrate=2765.6kbits/s speed=0.0154x elapsed=0:03:17.44    \nframe=   93 fps=0.5 q=45.2 size=    1024KiB time=00:00:03.03 bitrate=2765.6kbits/s speed=0.0153x elapsed=0:03:17.94    \nframe=   93 fps=0.5 q=45.2 size=    1024KiB time=00:00:03.03 bitrate=2765.6kbits/s speed=0.0153x elapsed=0:03:18.47    \nframe=   93 fps=0.5 q=45.2 size=    1024KiB time=00:00:03.03 bitrate=2765.6kbits/s speed=0.0152x elapsed=0:03:19.05    \nframe=   94 fps=0.5 q=40.3 size=    1024KiB time=00:00:03.06 bitrate=2735.5kbits/s speed=0.0154x elapsed=0:03:19.59    \nframe=   94 fps=0.5 q=40.3 size=    1024KiB time=00:00:03.06 bitrate=2735.5kbits/s speed=0.0153x elapsed=0:03:20.11    \nframe=   94 fps=0.5 q=40.3 size=    1024KiB time=00:00:03.06 bitrate=2735.5kbits/s speed=0.0153x elapsed=0:03:20.64    \nframe=   94 fps=0.5 q=40.3 size=    1024KiB time=00:00:03.06 bitrate=2735.5kbits/s speed=0.0152x elapsed=0:03:21.19    \nframe=   94 fps=0.5 q=40.3 size=    1024KiB time=00:00:03.06 bitrate=2735.5kbits/s speed=0.0152x elapsed=0:03:21.77    \nframe=   94 fps=0.5 q=40.3 size=    1024KiB time=00:00:03.06 bitrate=2735.5kbits/s speed=0.0152x elapsed=0:03:22.30    \nframe=   94 fps=0.5 q=40.3 size=    1024KiB time=00:00:03.06 bitrate=2735.5kbits/s speed=0.0151x elapsed=0:03:22.86    \nframe=   94 fps=0.5 q=40.3 size=    1024KiB time=00:00:03.06 bitrate=2735.5kbits/s speed=0.0151x elapsed=0:03:23.44    \nframe=   94 fps=0.5 q=40.3 size=    1024KiB time=00:00:03.06 bitrate=2735.5kbits/s speed=0.015x elapsed=0:03:23.97    \nframe=   94 fps=0.5 q=40.3 size=    1024KiB time=00:00:03.06 bitrate=2735.5kbits/s speed=0.015x elapsed=0:03:24.58    \nframe=   94 fps=0.5 q=40.3 size=    1024KiB time=00:00:03.06 bitrate=2735.5kbits/s speed=0.0149x elapsed=0:03:25.14    \nframe=   94 fps=0.5 q=40.3 size=    1024KiB time=00:00:03.06 bitrate=2735.5kbits/s speed=0.0149x elapsed=0:03:25.67    \nframe=   94 fps=0.5 q=40.3 size=    1024KiB time=00:00:03.06 bitrate=2735.5kbits/s speed=0.0149x elapsed=0:03:26.24    \nframe=   95 fps=0.5 q=43.1 size=    1024KiB time=00:00:03.10 bitrate=2706.1kbits/s speed=0.015x elapsed=0:03:26.92    \nframe=   95 fps=0.5 q=43.1 size=    1024KiB time=00:00:03.10 bitrate=2706.1kbits/s speed=0.0149x elapsed=0:03:27.45    \nframe=   95 fps=0.5 q=43.1 size=    1024KiB time=00:00:03.10 bitrate=2706.1kbits/s speed=0.0149x elapsed=0:03:27.99    \nframe=   95 fps=0.5 q=43.1 size=    1024KiB time=00:00:03.10 bitrate=2706.1kbits/s speed=0.0149x elapsed=0:03:28.55    \nframe=   95 fps=0.5 q=43.1 size=    1024KiB time=00:00:03.10 bitrate=2706.1kbits/s speed=0.0148x elapsed=0:03:29.21    \nframe=   95 fps=0.5 q=43.1 size=    1024KiB time=00:00:03.10 bitrate=2706.1kbits/s speed=0.0148x elapsed=0:03:29.75    \nframe=   96 fps=0.5 q=45.1 size=    1024KiB time=00:00:03.13 bitrate=2677.3kbits/s speed=0.0149x elapsed=0:03:30.28    \nframe=   96 fps=0.5 q=45.1 size=    1024KiB time=00:00:03.13 bitrate=2677.3kbits/s speed=0.0149x elapsed=0:03:30.85    \nframe=   96 fps=0.5 q=45.1 size=    1024KiB time=00:00:03.13 bitrate=2677.3kbits/s speed=0.0148x elapsed=0:03:31.60    \nframe=   96 fps=0.5 q=45.1 size=    1024KiB time=00:00:03.13 bitrate=2677.3kbits/s speed=0.0148x elapsed=0:03:32.30    \nframe=   96 fps=0.5 q=45.1 size=    1024KiB time=00:00:03.13 bitrate=2677.3kbits/s speed=0.0147x elapsed=0:03:32.87    \nframe=   96 fps=0.4 q=45.1 size=    1024KiB time=00:00:03.13 bitrate=2677.3kbits/s speed=0.0147x elapsed=0:03:33.45    \nframe=   96 fps=0.4 q=45.1 size=    1024KiB time=00:00:03.13 bitrate=2677.3kbits/s speed=0.0146x elapsed=0:03:34.16    \nframe=   96 fps=0.4 q=45.1 size=    1024KiB time=00:00:03.13 bitrate=2677.3kbits/s speed=0.0146x elapsed=0:03:34.81    \nframe=   96 fps=0.4 q=45.1 size=    1024KiB time=00:00:03.13 bitrate=2677.3kbits/s speed=0.0145x elapsed=0:03:35.47    \nframe=   96 fps=0.4 q=45.1 size=    1024KiB time=00:00:03.13 bitrate=2677.3kbits/s speed=0.0145x elapsed=0:03:36.05    \nframe=   96 fps=0.4 q=45.1 size=    1024KiB time=00:00:03.13 bitrate=2677.3kbits/s speed=0.0145x elapsed=0:03:36.78    \nframe=   96 fps=0.4 q=45.1 size=    1024KiB time=00:00:03.13 bitrate=2677.3kbits/s speed=0.0144x elapsed=0:03:37.50    \nframe=   96 fps=0.4 q=45.1 size=    1024KiB time=00:00:03.13 bitrate=2677.3kbits/s speed=0.0144x elapsed=0:03:38.16    \nframe=   97 fps=0.4 q=45.1 size=    1024KiB time=00:00:03.13 bitrate=2677.3kbits/s speed=0.0143x elapsed=0:03:38.66    \nframe=   97 fps=0.4 q=45.1 size=    1024KiB time=00:00:03.16 bitrate=2649.1kbits/s speed=0.0144x elapsed=0:03:39.22    \nframe=   97 fps=0.4 q=45.1 size=    1024KiB time=00:00:03.16 bitrate=2649.1kbits/s speed=0.0144x elapsed=0:03:39.90    \nframe=   97 fps=0.4 q=45.1 size=    1024KiB time=00:00:03.16 bitrate=2649.1kbits/s speed=0.0144x elapsed=0:03:40.53    \nframe=   98 fps=0.4 q=45.1 size=    1024KiB time=00:00:03.20 bitrate=2621.6kbits/s speed=0.0145x elapsed=0:03:41.17    \nframe=   98 fps=0.4 q=45.1 size=    1024KiB time=00:00:03.20 bitrate=2621.6kbits/s speed=0.0144x elapsed=0:03:41.74    \nframe=   98 fps=0.4 q=45.1 size=    1024KiB time=00:00:03.20 bitrate=2621.6kbits/s speed=0.0144x elapsed=0:03:42.44    \nframe=   98 fps=0.4 q=45.1 size=    1024KiB time=00:00:03.20 bitrate=2621.6kbits/s speed=0.0143x elapsed=0:03:43.14    \nframe=   98 fps=0.4 q=45.1 size=    1024KiB time=00:00:03.20 bitrate=2621.6kbits/s speed=0.0143x elapsed=0:03:43.85    \nframe=   98 fps=0.4 q=45.1 size=    1024KiB time=00:00:03.20 bitrate=2621.6kbits/s speed=0.0142x elapsed=0:03:44.59    \nframe=   98 fps=0.4 q=45.1 size=    1024KiB time=00:00:03.20 bitrate=2621.6kbits/s speed=0.0142x elapsed=0:03:45.17    \nframe=   98 fps=0.4 q=45.1 size=    1024KiB time=00:00:03.20 bitrate=2621.6kbits/s speed=0.0142x elapsed=0:03:45.82    \nframe=   98 fps=0.4 q=45.1 size=    1024KiB time=00:00:03.20 bitrate=2621.6kbits/s speed=0.0141x elapsed=0:03:46.56    \nframe=   98 fps=0.4 q=45.1 size=    1024KiB time=00:00:03.20 bitrate=2621.6kbits/s speed=0.0141x elapsed=0:03:47.29    \nframe=   98 fps=0.4 q=45.1 size=    1024KiB time=00:00:03.20 bitrate=2621.6kbits/s speed=0.014x elapsed=0:03:47.97    \nframe=   98 fps=0.4 q=45.1 size=    1024KiB time=00:00:03.20 bitrate=2621.6kbits/s speed=0.014x elapsed=0:03:48.56    \nframe=   99 fps=0.4 q=40.2 size=    1024KiB time=00:00:03.23 bitrate=2594.5kbits/s speed=0.0141x elapsed=0:03:49.10    \nframe=   99 fps=0.4 q=40.2 size=    1024KiB time=00:00:03.23 bitrate=2594.5kbits/s speed=0.0141x elapsed=0:03:49.67    \nframe=   99 fps=0.4 q=40.2 size=    1024KiB time=00:00:03.23 bitrate=2594.5kbits/s speed=0.014x elapsed=0:03:50.39    \nframe=   99 fps=0.4 q=40.2 size=    1024KiB time=00:00:03.23 bitrate=2594.5kbits/s speed=0.014x elapsed=0:03:51.13    \nframe=   99 fps=0.4 q=40.2 size=    1024KiB time=00:00:03.23 bitrate=2594.5kbits/s speed=0.014x elapsed=0:03:51.77    \nframe=   99 fps=0.4 q=40.2 size=    1024KiB time=00:00:03.23 bitrate=2594.5kbits/s speed=0.0139x elapsed=0:03:52.36    \nframe=   99 fps=0.4 q=40.2 size=    1024KiB time=00:00:03.23 bitrate=2594.5kbits/s speed=0.0139x elapsed=0:03:52.96    \nframe=   99 fps=0.4 q=40.2 size=    1024KiB time=00:00:03.23 bitrate=2594.5kbits/s speed=0.0138x elapsed=0:03:53.64    \nframe=   99 fps=0.4 q=40.2 size=    1024KiB time=00:00:03.23 bitrate=2594.5kbits/s speed=0.0138x elapsed=0:03:54.32    \nframe=   99 fps=0.4 q=40.2 size=    1024KiB time=00:00:03.23 bitrate=2594.5kbits/s speed=0.0138x elapsed=0:03:55.05    \nframe=   99 fps=0.4 q=40.2 size=    1024KiB time=00:00:03.23 bitrate=2594.5kbits/s speed=0.0137x elapsed=0:03:55.75    \nframe=   99 fps=0.4 q=40.2 size=    1024KiB time=00:00:03.23 bitrate=2594.5kbits/s speed=0.0137x elapsed=0:03:56.30    \nframe=   99 fps=0.4 q=40.2 size=    1024KiB time=00:00:03.23 bitrate=2594.5kbits/s speed=0.0137x elapsed=0:03:56.86    \nframe=   99 fps=0.4 q=40.2 size=    1024KiB time=00:00:03.23 bitrate=2594.5kbits/s speed=0.0136x elapsed=0:03:57.38    \nframe=  100 fps=0.4 q=41.9 size=    1024KiB time=00:00:03.26 bitrate=2568.0kbits/s speed=0.0137x elapsed=0:03:57.90    \nframe=  100 fps=0.4 q=41.9 size=    1024KiB time=00:00:03.26 bitrate=2568.0kbits/s speed=0.0137x elapsed=0:03:58.41    \nframe=  100 fps=0.4 q=41.9 size=    1024KiB time=00:00:03.26 bitrate=2568.0kbits/s speed=0.0137x elapsed=0:03:58.94    \nframe=  101 fps=0.4 q=45.1 size=    1024KiB time=00:00:03.30 bitrate=2542.1kbits/s speed=0.0138x elapsed=0:03:59.47    \nframe=  103 fps=0.4 q=45.1 size=    1024KiB time=00:00:03.36 bitrate=2491.8kbits/s speed=0.014x elapsed=0:04:00.01    \nframe=  103 fps=0.4 q=45.1 size=    1024KiB time=00:00:03.36 bitrate=2491.8kbits/s speed=0.014x elapsed=0:04:00.57    \nframe=  103 fps=0.4 q=45.1 size=    1024KiB time=00:00:03.36 bitrate=2491.8kbits/s speed=0.014x elapsed=0:04:01.11    \nframe=  103 fps=0.4 q=45.1 size=    1024KiB time=00:00:03.36 bitrate=2491.8kbits/s speed=0.0139x elapsed=0:04:01.64    \nframe=  104 fps=0.4 q=40.2 size=    1024KiB time=00:00:03.40 bitrate=2467.3kbits/s speed=0.014x elapsed=0:04:02.15    \nframe=  104 fps=0.4 q=40.2 size=    1024KiB time=00:00:03.40 bitrate=2467.3kbits/s speed=0.014x elapsed=0:04:02.66    \nframe=  105 fps=0.4 q=44.0 size=    1280KiB time=00:00:03.43 bitrate=3054.2kbits/s speed=0.0141x elapsed=0:04:03.19    \nframe=  105 fps=0.4 q=44.0 size=    1280KiB time=00:00:03.43 bitrate=3054.2kbits/s speed=0.0141x elapsed=0:04:03.71    \nframe=  107 fps=0.4 q=45.2 size=    1280KiB time=00:00:03.50 bitrate=2996.0kbits/s speed=0.0143x elapsed=0:04:04.23    \nframe=  108 fps=0.4 q=45.2 size=    1280KiB time=00:00:03.53 bitrate=2967.8kbits/s speed=0.0144x elapsed=0:04:04.74    \nframe=  108 fps=0.4 q=45.2 size=    1280KiB time=00:00:03.53 bitrate=2967.8kbits/s speed=0.0144x elapsed=0:04:05.29    \nframe=  108 fps=0.4 q=45.2 size=    1280KiB time=00:00:03.53 bitrate=2967.8kbits/s speed=0.0144x elapsed=0:04:05.81    \nframe=  109 fps=0.4 q=40.2 size=    1280KiB time=00:00:03.56 bitrate=2940.0kbits/s speed=0.0145x elapsed=0:04:06.32    \nframe=  109 fps=0.4 q=40.2 size=    1280KiB time=00:00:03.56 bitrate=2940.0kbits/s speed=0.0144x elapsed=0:04:06.84    \nframe=  109 fps=0.4 q=40.2 size=    1280KiB time=00:00:03.56 bitrate=2940.0kbits/s speed=0.0144x elapsed=0:04:07.38    \nframe=  109 fps=0.4 q=40.2 size=    1280KiB time=00:00:03.56 bitrate=2940.0kbits/s speed=0.0144x elapsed=0:04:08.00    \nframe=  109 fps=0.4 q=40.2 size=    1280KiB time=00:00:03.56 bitrate=2940.0kbits/s speed=0.0143x elapsed=0:04:08.58    \nframe=  109 fps=0.4 q=40.2 size=    1280KiB time=00:00:03.56 bitrate=2940.0kbits/s speed=0.0143x elapsed=0:04:09.13    \nframe=  110 fps=0.4 q=44.0 size=    1280KiB time=00:00:03.60 bitrate=2912.8kbits/s speed=0.0144x elapsed=0:04:09.63    \nframe=  110 fps=0.4 q=44.0 size=    1280KiB time=00:00:03.60 bitrate=2912.8kbits/s speed=0.0144x elapsed=0:04:10.15    \nframe=  110 fps=0.4 q=44.0 size=    1280KiB time=00:00:03.60 bitrate=2912.8kbits/s speed=0.0144x elapsed=0:04:10.66    \nframe=  110 fps=0.4 q=44.0 size=    1280KiB time=00:00:03.60 bitrate=2912.8kbits/s speed=0.0143x elapsed=0:04:11.19    \nframe=  111 fps=0.4 q=45.1 size=    1280KiB time=00:00:03.63 bitrate=2886.1kbits/s speed=0.0144x elapsed=0:04:11.73    \nframe=  111 fps=0.4 q=45.1 size=    1280KiB time=00:00:03.63 bitrate=2886.1kbits/s speed=0.0144x elapsed=0:04:12.27    \nframe=  112 fps=0.4 q=45.0 size=    1280KiB time=00:00:03.66 bitrate=2859.8kbits/s speed=0.0145x elapsed=0:04:12.82    \nframe=  113 fps=0.4 q=45.0 size=    1280KiB time=00:00:03.70 bitrate=2834.1kbits/s speed=0.0146x elapsed=0:04:13.37    \nframe=  113 fps=0.4 q=45.0 size=    1280KiB time=00:00:03.70 bitrate=2834.1kbits/s speed=0.0146x elapsed=0:04:13.89    \nframe=  113 fps=0.4 q=45.0 size=    1280KiB time=00:00:03.70 bitrate=2834.1kbits/s speed=0.0145x elapsed=0:04:14.46    \nframe=  113 fps=0.4 q=45.0 size=    1280KiB time=00:00:03.70 bitrate=2834.1kbits/s speed=0.0145x elapsed=0:04:14.98    \nframe=  113 fps=0.4 q=45.0 size=    1280KiB time=00:00:03.70 bitrate=2834.1kbits/s speed=0.0145x elapsed=0:04:15.52    \nframe=  114 fps=0.4 q=40.2 size=    1280KiB time=00:00:03.73 bitrate=2808.8kbits/s speed=0.0146x elapsed=0:04:16.08    \nframe=  114 fps=0.4 q=40.2 size=    1280KiB time=00:00:03.73 bitrate=2808.8kbits/s speed=0.0145x elapsed=0:04:16.70    \nframe=  114 fps=0.4 q=40.2 size=    1280KiB time=00:00:03.73 bitrate=2808.8kbits/s speed=0.0145x elapsed=0:04:17.31    \nframe=  114 fps=0.4 q=40.2 size=    1280KiB time=00:00:03.73 bitrate=2808.8kbits/s speed=0.0145x elapsed=0:04:17.87    \nframe=  114 fps=0.4 q=40.2 size=    1280KiB time=00:00:03.73 bitrate=2808.8kbits/s speed=0.0144x elapsed=0:04:18.43    \nframe=  114 fps=0.4 q=40.2 size=    1280KiB time=00:00:03.73 bitrate=2808.8kbits/s speed=0.0144x elapsed=0:04:19.00    \nframe=  114 fps=0.4 q=40.2 size=    1280KiB time=00:00:03.73 bitrate=2808.8kbits/s speed=0.0144x elapsed=0:04:19.55    \nframe=  114 fps=0.4 q=40.2 size=    1280KiB time=00:00:03.73 bitrate=2808.8kbits/s speed=0.0144x elapsed=0:04:20.13    \nframe=  114 fps=0.4 q=40.2 size=    1280KiB time=00:00:03.73 bitrate=2808.8kbits/s speed=0.0143x elapsed=0:04:20.69    \nframe=  114 fps=0.4 q=40.2 size=    1280KiB time=00:00:03.73 bitrate=2808.8kbits/s speed=0.0143x elapsed=0:04:21.36    \nframe=  114 fps=0.4 q=40.2 size=    1280KiB time=00:00:03.73 bitrate=2808.8kbits/s speed=0.0143x elapsed=0:04:21.96    \nframe=  114 fps=0.4 q=40.2 size=    1280KiB time=00:00:03.73 bitrate=2808.8kbits/s speed=0.0142x elapsed=0:04:22.54    \nframe=  114 fps=0.4 q=40.2 size=    1280KiB time=00:00:03.73 bitrate=2808.8kbits/s speed=0.0142x elapsed=0:04:23.13    \nframe=  114 fps=0.4 q=40.2 size=    1280KiB time=00:00:03.73 bitrate=2808.8kbits/s speed=0.0141x elapsed=0:04:23.84    \nframe=  114 fps=0.4 q=40.2 size=    1280KiB time=00:00:03.73 bitrate=2808.8kbits/s speed=0.0141x elapsed=0:04:24.45    \nframe=  115 fps=0.4 q=43.8 size=    1280KiB time=00:00:03.76 bitrate=2783.9kbits/s speed=0.0142x elapsed=0:04:25.02    \nframe=  115 fps=0.4 q=43.8 size=    1280KiB time=00:00:03.76 bitrate=2783.9kbits/s speed=0.0142x elapsed=0:04:25.60    \nframe=  115 fps=0.4 q=43.8 size=    1280KiB time=00:00:03.76 bitrate=2783.9kbits/s speed=0.0142x elapsed=0:04:26.13    \nframe=  115 fps=0.4 q=43.8 size=    1280KiB time=00:00:03.76 bitrate=2783.9kbits/s speed=0.0141x elapsed=0:04:26.85    \nframe=  115 fps=0.4 q=43.8 size=    1280KiB time=00:00:03.76 bitrate=2783.9kbits/s speed=0.0141x elapsed=0:04:27.53    \nframe=  115 fps=0.4 q=43.8 size=    1280KiB time=00:00:03.76 bitrate=2783.9kbits/s speed=0.014x elapsed=0:04:28.09    \nframe=  115 fps=0.4 q=43.8 size=    1280KiB time=00:00:03.76 bitrate=2783.9kbits/s speed=0.014x elapsed=0:04:28.66    \nframe=  115 fps=0.4 q=43.8 size=    1280KiB time=00:00:03.76 bitrate=2783.9kbits/s speed=0.014x elapsed=0:04:29.20    \nframe=  115 fps=0.4 q=43.8 size=    1280KiB time=00:00:03.76 bitrate=2783.9kbits/s speed=0.014x elapsed=0:04:29.93    \nframe=  115 fps=0.4 q=43.8 size=    1280KiB time=00:00:03.76 bitrate=2783.9kbits/s speed=0.0139x elapsed=0:04:30.63    \nframe=  115 fps=0.4 q=43.8 size=    1280KiB time=00:00:03.76 bitrate=2783.9kbits/s speed=0.0139x elapsed=0:04:31.17    \nframe=  115 fps=0.4 q=43.8 size=    1280KiB time=00:00:03.76 bitrate=2783.9kbits/s speed=0.0139x elapsed=0:04:31.79    \nframe=  115 fps=0.4 q=43.8 size=    1280KiB time=00:00:03.76 bitrate=2783.9kbits/s speed=0.0138x elapsed=0:04:32.53    \nframe=  115 fps=0.4 q=43.8 size=    1280KiB time=00:00:03.76 bitrate=2783.9kbits/s speed=0.0138x elapsed=0:04:33.24    \nframe=  115 fps=0.4 q=43.8 size=    1280KiB time=00:00:03.76 bitrate=2783.9kbits/s speed=0.0137x elapsed=0:04:33.94    \nframe=  116 fps=0.4 q=45.1 size=    1280KiB time=00:00:03.80 bitrate=2759.5kbits/s speed=0.0138x elapsed=0:04:34.52    \nframe=  116 fps=0.4 q=45.1 size=    1280KiB time=00:00:03.80 bitrate=2759.5kbits/s speed=0.0138x elapsed=0:04:35.13    \nframe=  116 fps=0.4 q=45.1 size=    1280KiB time=00:00:03.80 bitrate=2759.5kbits/s speed=0.0138x elapsed=0:04:35.86    \nframe=  116 fps=0.4 q=45.1 size=    1280KiB time=00:00:03.80 bitrate=2759.5kbits/s speed=0.0137x elapsed=0:04:36.59    \nframe=  116 fps=0.4 q=45.1 size=    1280KiB time=00:00:03.80 bitrate=2759.5kbits/s speed=0.0137x elapsed=0:04:37.29    \nframe=  116 fps=0.4 q=45.1 size=    1280KiB time=00:00:03.80 bitrate=2759.5kbits/s speed=0.0137x elapsed=0:04:37.92    \nframe=  118 fps=0.4 q=45.0 size=    1280KiB time=00:00:03.86 bitrate=2711.9kbits/s speed=0.0139x elapsed=0:04:38.51    \nframe=  118 fps=0.4 q=45.0 size=    1280KiB time=00:00:03.86 bitrate=2711.9kbits/s speed=0.0139x elapsed=0:04:39.08    \nframe=  118 fps=0.4 q=45.0 size=    1280KiB time=00:00:03.86 bitrate=2711.9kbits/s speed=0.0138x elapsed=0:04:39.81    \nframe=  118 fps=0.4 q=45.0 size=    1280KiB time=00:00:03.86 bitrate=2711.9kbits/s speed=0.0138x elapsed=0:04:40.51    \nframe=  118 fps=0.4 q=45.0 size=    1280KiB time=00:00:03.86 bitrate=2711.9kbits/s speed=0.0138x elapsed=0:04:41.16    \nframe=  118 fps=0.4 q=45.0 size=    1280KiB time=00:00:03.86 bitrate=2711.9kbits/s speed=0.0137x elapsed=0:04:41.82    \nframe=  118 fps=0.4 q=45.0 size=    1280KiB time=00:00:03.86 bitrate=2711.9kbits/s speed=0.0137x elapsed=0:04:42.38    \nframe=  119 fps=0.4 q=40.2 size=    1280KiB time=00:00:03.90 bitrate=2688.7kbits/s speed=0.0138x elapsed=0:04:42.97    \nframe=  119 fps=0.4 q=40.2 size=    1280KiB time=00:00:03.90 bitrate=2688.7kbits/s speed=0.0137x elapsed=0:04:43.72    \nframe=  119 fps=0.4 q=40.2 size=    1280KiB time=00:00:03.90 bitrate=2688.7kbits/s speed=0.0137x elapsed=0:04:44.45    \nframe=  119 fps=0.4 q=40.2 size=    1280KiB time=00:00:03.90 bitrate=2688.7kbits/s speed=0.0137x elapsed=0:04:45.14    \nframe=  119 fps=0.4 q=40.2 size=    1280KiB time=00:00:03.90 bitrate=2688.7kbits/s speed=0.0136x elapsed=0:04:45.72    \nframe=  119 fps=0.4 q=40.2 size=    1280KiB time=00:00:03.90 bitrate=2688.7kbits/s speed=0.0136x elapsed=0:04:46.26    \nframe=  119 fps=0.4 q=40.2 size=    1280KiB time=00:00:03.90 bitrate=2688.7kbits/s speed=0.0136x elapsed=0:04:46.82    \nframe=  119 fps=0.4 q=40.2 size=    1280KiB time=00:00:03.90 bitrate=2688.7kbits/s speed=0.0136x elapsed=0:04:47.51    \nframe=  119 fps=0.4 q=40.2 size=    1280KiB time=00:00:03.90 bitrate=2688.7kbits/s speed=0.0135x elapsed=0:04:48.16    \nframe=  119 fps=0.4 q=40.2 size=    1280KiB time=00:00:03.90 bitrate=2688.7kbits/s speed=0.0135x elapsed=0:04:48.83    \nframe=  119 fps=0.4 q=40.2 size=    1280KiB time=00:00:03.90 bitrate=2688.7kbits/s speed=0.0135x elapsed=0:04:49.41    \nframe=  119 fps=0.4 q=40.2 size=    1280KiB time=00:00:03.90 bitrate=2688.7kbits/s speed=0.0135x elapsed=0:04:49.95    \nframe=  119 fps=0.4 q=40.2 size=    1280KiB time=00:00:03.90 bitrate=2688.7kbits/s speed=0.0134x elapsed=0:04:50.51    \nframe=  119 fps=0.4 q=40.2 size=    1280KiB time=00:00:03.90 bitrate=2688.7kbits/s speed=0.0134x elapsed=0:04:51.08    \nframe=  119 fps=0.4 q=40.2 size=    1280KiB time=00:00:03.90 bitrate=2688.7kbits/s speed=0.0134x elapsed=0:04:51.76    \nframe=  119 fps=0.4 q=40.2 size=    1280KiB time=00:00:03.90 bitrate=2688.7kbits/s speed=0.0133x elapsed=0:04:52.44    \nframe=  119 fps=0.4 q=40.2 size=    1280KiB time=00:00:03.90 bitrate=2688.7kbits/s speed=0.0133x elapsed=0:04:53.10    \nframe=  119 fps=0.4 q=40.2 size=    1280KiB time=00:00:03.90 bitrate=2688.7kbits/s speed=0.0133x elapsed=0:04:53.66    \nframe=  119 fps=0.4 q=40.2 size=    1280KiB time=00:00:03.90 bitrate=2688.7kbits/s speed=0.0133x elapsed=0:04:54.28    \nframe=  119 fps=0.4 q=40.2 size=    1280KiB time=00:00:03.90 bitrate=2688.7kbits/s speed=0.0132x elapsed=0:04:54.87    \nframe=  119 fps=0.4 q=40.2 size=    1280KiB time=00:00:03.90 bitrate=2688.7kbits/s speed=0.0132x elapsed=0:04:55.50    \nframe=  120 fps=0.4 q=43.5 size=    1280KiB time=00:00:03.93 bitrate=2666.0kbits/s speed=0.0133x elapsed=0:04:56.04    \nframe=  120 fps=0.4 q=43.5 size=    1280KiB time=00:00:03.93 bitrate=2666.0kbits/s speed=0.0133x elapsed=0:04:56.57    \nframe=  120 fps=0.4 q=43.5 size=    1280KiB time=00:00:03.93 bitrate=2666.0kbits/s speed=0.0132x elapsed=0:04:57.17    \nframe=  120 fps=0.4 q=43.5 size=    1280KiB time=00:00:03.93 bitrate=2666.0kbits/s speed=0.0132x elapsed=0:04:57.72    \nframe=  120 fps=0.4 q=43.5 size=    1280KiB time=00:00:03.93 bitrate=2666.0kbits/s speed=0.0132x elapsed=0:04:58.26    \nframe=  120 fps=0.4 q=43.5 size=    1280KiB time=00:00:03.93 bitrate=2666.0kbits/s speed=0.0132x elapsed=0:04:58.79    \nframe=  120 fps=0.4 q=43.5 size=    1280KiB time=00:00:03.93 bitrate=2666.0kbits/s speed=0.0131x elapsed=0:04:59.36    \nframe=  120 fps=0.4 q=43.5 size=    1280KiB time=00:00:03.93 bitrate=2666.0kbits/s speed=0.0131x elapsed=0:04:59.91    \nframe=  120 fps=0.4 q=43.5 size=    1280KiB time=00:00:03.93 bitrate=2666.0kbits/s speed=0.0131x elapsed=0:05:00.47    \nframe=  121 fps=0.4 q=45.1 size=    1280KiB time=00:00:03.96 bitrate=2643.6kbits/s speed=0.0132x elapsed=0:05:00.98    \nframe=  122 fps=0.4 q=45.0 size=    1280KiB time=00:00:04.00 bitrate=2621.5kbits/s speed=0.0133x elapsed=0:05:01.53    \nframe=  123 fps=0.4 q=40.2 size=    1280KiB time=00:00:04.03 bitrate=2599.9kbits/s speed=0.0134x elapsed=0:05:02.05    \nframe=  123 fps=0.4 q=40.2 size=    1280KiB time=00:00:04.03 bitrate=2599.9kbits/s speed=0.0133x elapsed=0:05:02.58    \nframe=  123 fps=0.4 q=40.2 size=    1280KiB time=00:00:04.03 bitrate=2599.9kbits/s speed=0.0133x elapsed=0:05:03.14    \nframe=  123 fps=0.4 q=40.2 size=    1280KiB time=00:00:04.03 bitrate=2599.9kbits/s speed=0.0133x elapsed=0:05:03.66    \nframe=  123 fps=0.4 q=40.2 size=    1280KiB time=00:00:04.03 bitrate=2599.9kbits/s speed=0.0133x elapsed=0:05:04.21    \nframe=  123 fps=0.4 q=40.2 size=    1280KiB time=00:00:04.03 bitrate=2599.9kbits/s speed=0.0132x elapsed=0:05:04.78    \nframe=  123 fps=0.4 q=40.2 size=    1280KiB time=00:00:04.03 bitrate=2599.9kbits/s speed=0.0132x elapsed=0:05:05.32    \nframe=  123 fps=0.4 q=40.2 size=    1280KiB time=00:00:04.03 bitrate=2599.9kbits/s speed=0.0132x elapsed=0:05:05.87    \nframe=  123 fps=0.4 q=40.2 size=    1280KiB time=00:00:04.03 bitrate=2599.9kbits/s speed=0.0132x elapsed=0:05:06.41    \nframe=  124 fps=0.4 q=43.5 size=    1280KiB time=00:00:04.06 bitrate=2578.6kbits/s speed=0.0132x elapsed=0:05:07.00    \nframe=  125 fps=0.4 q=45.0 size=    1280KiB time=00:00:04.10 bitrate=2557.6kbits/s speed=0.0133x elapsed=0:05:07.54    \nframe=  126 fps=0.4 q=45.0 size=    1280KiB time=00:00:04.13 bitrate=2537.0kbits/s speed=0.0134x elapsed=0:05:08.05    \nframe=  126 fps=0.4 q=45.0 size=    1280KiB time=00:00:04.13 bitrate=2537.0kbits/s speed=0.0134x elapsed=0:05:08.57    \nframe=  127 fps=0.4 q=40.0 size=    1536KiB time=00:00:04.16 bitrate=3020.0kbits/s speed=0.0135x elapsed=0:05:09.11    \nframe=  127 fps=0.4 q=40.0 size=    1536KiB time=00:00:04.16 bitrate=3020.0kbits/s speed=0.0135x elapsed=0:05:09.65    \nframe=  127 fps=0.4 q=40.0 size=    1536KiB time=00:00:04.16 bitrate=3020.0kbits/s speed=0.0134x elapsed=0:05:10.18    \nframe=  127 fps=0.4 q=40.0 size=    1536KiB time=00:00:04.16 bitrate=3020.0kbits/s speed=0.0134x elapsed=0:05:10.70    \nframe=  127 fps=0.4 q=40.0 size=    1536KiB time=00:00:04.16 bitrate=3020.0kbits/s speed=0.0134x elapsed=0:05:11.21    \nframe=  128 fps=0.4 q=43.9 size=    1536KiB time=00:00:04.20 bitrate=2996.0kbits/s speed=0.0135x elapsed=0:05:11.72    \nframe=  128 fps=0.4 q=43.9 size=    1536KiB time=00:00:04.20 bitrate=2996.0kbits/s speed=0.0135x elapsed=0:05:12.26    \nframe=  129 fps=0.4 q=45.0 size=    1536KiB time=00:00:04.23 bitrate=2972.4kbits/s speed=0.0135x elapsed=0:05:12.80    \nframe=  129 fps=0.4 q=45.0 size=    1536KiB time=00:00:04.23 bitrate=2972.4kbits/s speed=0.0135x elapsed=0:05:13.30    \nframe=  130 fps=0.4 q=45.0 size=    1536KiB time=00:00:04.26 bitrate=2949.2kbits/s speed=0.0136x elapsed=0:05:13.82    \nframe=  132 fps=0.4 q=40.3 size=    1536KiB time=00:00:04.33 bitrate=2903.8kbits/s speed=0.0138x elapsed=0:05:14.35    \nframe=  132 fps=0.4 q=40.3 size=    1536KiB time=00:00:04.33 bitrate=2903.8kbits/s speed=0.0138x elapsed=0:05:14.87    \nframe=  132 fps=0.4 q=40.3 size=    1536KiB time=00:00:04.33 bitrate=2903.8kbits/s speed=0.0137x elapsed=0:05:15.40    \nframe=  132 fps=0.4 q=40.3 size=    1536KiB time=00:00:04.33 bitrate=2903.8kbits/s speed=0.0137x elapsed=0:05:15.92    \nframe=  132 fps=0.4 q=40.3 size=    1536KiB time=00:00:04.33 bitrate=2903.8kbits/s speed=0.0137x elapsed=0:05:16.44    \nframe=  133 fps=0.4 q=41.3 size=    1536KiB time=00:00:04.36 bitrate=2881.7kbits/s speed=0.0138x elapsed=0:05:16.98    \nframe=  133 fps=0.4 q=41.3 size=    1536KiB time=00:00:04.36 bitrate=2881.7kbits/s speed=0.0138x elapsed=0:05:17.51    \nframe=  133 fps=0.4 q=41.3 size=    1536KiB time=00:00:04.36 bitrate=2881.7kbits/s speed=0.0137x elapsed=0:05:18.04    \nframe=  134 fps=0.4 q=45.1 size=    1536KiB time=00:00:04.40 bitrate=2859.8kbits/s speed=0.0138x elapsed=0:05:18.56    \nframe=  136 fps=0.4 q=45.1 size=    1536KiB time=00:00:04.46 bitrate=2817.1kbits/s speed=0.014x elapsed=0:05:19.10    \nframe=  136 fps=0.4 q=45.1 size=    1536KiB time=00:00:04.46 bitrate=2817.1kbits/s speed=0.014x elapsed=0:05:19.62    \nframe=  136 fps=0.4 q=45.1 size=    1536KiB time=00:00:04.46 bitrate=2817.1kbits/s speed=0.014x elapsed=0:05:20.14    \nframe=  136 fps=0.4 q=45.1 size=    1536KiB time=00:00:04.46 bitrate=2817.1kbits/s speed=0.0139x elapsed=0:05:20.66    \nframe=  137 fps=0.4 q=40.3 size=    1536KiB time=00:00:04.50 bitrate=2796.3kbits/s speed=0.014x elapsed=0:05:21.19    \nframe=  137 fps=0.4 q=40.3 size=    1536KiB time=00:00:04.50 bitrate=2796.3kbits/s speed=0.014x elapsed=0:05:21.70    \nframe=  137 fps=0.4 q=40.3 size=    1536KiB time=00:00:04.50 bitrate=2796.3kbits/s speed=0.014x elapsed=0:05:22.23    \nframe=  137 fps=0.4 q=40.3 size=    1536KiB time=00:00:04.50 bitrate=2796.3kbits/s speed=0.0139x elapsed=0:05:22.75    \nframe=  138 fps=0.4 q=44.0 size=    1536KiB time=00:00:04.53 bitrate=2775.7kbits/s speed=0.014x elapsed=0:05:23.27    \nframe=  139 fps=0.4 q=45.0 size=    1536KiB time=00:00:04.56 bitrate=2755.5kbits/s speed=0.0141x elapsed=0:05:23.78    \nframe=  139 fps=0.4 q=45.0 size=    1536KiB time=00:00:04.56 bitrate=2755.5kbits/s speed=0.0141x elapsed=0:05:24.29    \nframe=  141 fps=0.4 q=45.1 size=    1536KiB time=00:00:04.63 bitrate=2715.8kbits/s speed=0.0143x elapsed=0:05:24.83    \nframe=  141 fps=0.4 q=45.1 size=    1536KiB time=00:00:04.63 bitrate=2715.8kbits/s speed=0.0142x elapsed=0:05:25.37    \nframe=  142 fps=0.4 q=40.9 size=    1536KiB time=00:00:04.66 bitrate=2696.4kbits/s speed=0.0143x elapsed=0:05:25.88    \nframe=  142 fps=0.4 q=40.9 size=    1536KiB time=00:00:04.66 bitrate=2696.4kbits/s speed=0.0143x elapsed=0:05:26.40    \nframe=  142 fps=0.4 q=40.9 size=    1536KiB time=00:00:04.66 bitrate=2696.4kbits/s speed=0.0143x elapsed=0:05:26.93    \nframe=  142 fps=0.4 q=40.9 size=    1536KiB time=00:00:04.66 bitrate=2696.4kbits/s speed=0.0143x elapsed=0:05:27.44    \nframe=  143 fps=0.4 q=43.2 size=    1536KiB time=00:00:04.70 bitrate=2677.3kbits/s speed=0.0143x elapsed=0:05:27.96    \nframe=  143 fps=0.4 q=43.2 size=    1536KiB time=00:00:04.70 bitrate=2677.3kbits/s speed=0.0143x elapsed=0:05:28.50    \nframe=  143 fps=0.4 q=43.2 size=    1536KiB time=00:00:04.70 bitrate=2677.3kbits/s speed=0.0143x elapsed=0:05:29.03    \nframe=  145 fps=0.4 q=45.1 size=    1536KiB time=00:00:04.76 bitrate=2639.8kbits/s speed=0.0145x elapsed=0:05:29.54    \nframe=  146 fps=0.4 q=45.0 size=    1536KiB time=00:00:04.80 bitrate=2621.5kbits/s speed=0.0145x elapsed=0:05:30.06    \nframe=  146 fps=0.4 q=45.0 size=    1536KiB time=00:00:04.80 bitrate=2621.5kbits/s speed=0.0145x elapsed=0:05:30.59    \nframe=  146 fps=0.4 q=45.0 size=    1536KiB time=00:00:04.80 bitrate=2621.5kbits/s speed=0.0145x elapsed=0:05:31.10    \nframe=  146 fps=0.4 q=45.0 size=    1536KiB time=00:00:04.80 bitrate=2621.5kbits/s speed=0.0145x elapsed=0:05:31.63    \nframe=  147 fps=0.4 q=42.9 size=    1536KiB time=00:00:04.83 bitrate=2603.4kbits/s speed=0.0146x elapsed=0:05:32.14    \nframe=  147 fps=0.4 q=42.9 size=    1536KiB time=00:00:04.83 bitrate=2603.4kbits/s speed=0.0145x elapsed=0:05:32.67    \nframe=  147 fps=0.4 q=42.9 size=    1536KiB time=00:00:04.83 bitrate=2603.4kbits/s speed=0.0145x elapsed=0:05:33.19    \nframe=  148 fps=0.4 q=43.1 size=    1792KiB time=00:00:04.86 bitrate=3016.5kbits/s speed=0.0146x elapsed=0:05:33.71    \n[mp4 @ 000001f19823a980] Starting second pass: moving the moov atom to the beginning of the file\n[out#0/mp4 @ 000001f198241700] video:1831KiB audio:0KiB subtitle:0KiB other streams:0KiB global headers:2KiB muxing overhead: 0.273960%\nframe=  150 fps=0.4 q=45.0 Lsize=    1836KiB time=00:00:04.93 bitrate=3048.4kbits/s speed=0.0148x elapsed=0:05:34.12    \nx265 [info]: frame I:      1, Avg QP:36.87  kb/s: 14058.96\nx265 [info]: frame P:     31, Avg QP:40.43  kb/s: 5354.18 \nx265 [info]: frame B:    118, Avg QP:44.76  kb/s: 2286.04 \nx265 [info]: Weighted P-Frames: Y:0.0% UV:0.0%\n\nencoded 150 frames in 333.11s (0.45 fps), 2998.60 kb/s, Avg QP:43.81\n",
  "seconds": 334.5555467605591,
  "probe_out": {}
}